<svg width="633" height="151" viewBox="0 0 633 151" fill="none" xmlns="http://www.w3.org/2000/svg">
<g clip-path="url(#clip0_38_20)">
<path d="M489.76 30.4C475.92 20.1 458.12 17.76 441.89 24.26C413.12 35.76 402.85 71.25 420.12 96.84C429.67 110.99 445.13 118.36 462.86 117.59C487.75 116.51 506.42 97.87 508.53 73.65C510.02 56.54 502.8 40.1 489.76 30.4ZM459.8 99.58C442.88 99.35 430.45 84.83 431.41 67.69C432.37 50.55 444.09 39.22 459.91 38.97C475.79 38.72 488.55 51.04 489.2 68.17H489.19C489.86 85.94 476.46 99.81 459.8 99.58Z" fill="#0F1F38"/>
<path d="M578.21 104.61C565.24 123.33 527.93 122.54 513.55 99.66L527.28 88.08C533.85 99.15 546.38 104.27 557.8 99.24C561.87 97.45 564.05 93.12 563.86 89.32C563.65 85.22 560.88 81.75 556.66 80.19L534.96 72.15C525.41 68.61 518.49 61.04 517.31 51.82C516.01 41.6 519.93 31.67 528.99 26.26C545.58 16.36 567.83 20 579.94 35.95C576.41 40.39 571.87 43.38 567.09 47.33C561.34 39.23 552.17 35.41 542.97 38.21C538.59 39.54 536.07 43.06 536.05 47.12C536.03 51.18 538.58 54.65 542.84 56.22L565.31 64.49C573.15 67.38 579.38 73.46 581.6 80.25C584.41 88.87 583.14 97.51 578.22 104.61H578.21Z" fill="#0E1E36"/>
<path d="M613.66 87.98C613.66 94.52 618.37 99.21 624.35 98.55L636.27 97.24L636.25 114.46C628.82 116.24 621.96 117.23 614.46 116.17C603.22 114.57 594.08 105.83 594.02 93.65L593.56 0.0999902L613.44 -0.0100098L613.66 22.8L638.51 22.98L628.07 39.58L613.6 39.72L613.65 87.97H613.66V87.98Z" fill="#0F1F37"/>
<path d="M234.51 23.02L234.45 115.54L214.76 115.42C214.57 111.39 215.34 108.47 214.14 104.11C207.31 113.54 197.48 117.34 186.31 117.82C165.29 118.71 148.72 103.92 147.51 82.36L147 23.11C153.72 22.45 160.18 22.73 167.16 22.91L167.53 79.45C167.61 90.94 176.57 98.68 187.36 99.5C201.35 100.56 214.15 91.13 214.27 76.5L214.73 23.05C221.01 22.44 226.6 22.81 234.5 23.02H234.51Z" fill="#0F1F37"/>
<path d="M270.84 88.18C270.84 93.57 274.03 97.23 278.74 98.18C283.45 99.13 288.37 98.24 293.42 96.81L293.44 114.46C286.73 115.91 280.89 116.91 274.21 116.54C261.77 115.86 251.27 106.72 251.21 93.45L250.78 0.159988L270.81 0.0499878L270.9 22.91L296.5 23.04L285.16 39.69L270.94 39.81L270.84 88.19V88.18Z" fill="#0F1F37"/>
<path d="M393.59 38.51C377.64 17.26 344.84 13.67 327 35.19L326.44 22.91L306.86 23.14V151.1L326.65 151.21H326.66L326.71 104.43C346.36 125.12 380.35 120.65 395.08 98.28C407 80.17 406.63 55.89 393.59 38.51ZM354.89 99.58C337.91 99.53 325.88 85.87 326.25 68.6C326.6 52.31 338.02 39.5 353.96 38.98C369.9 38.46 382.96 50.83 383.63 68.12C384.32 85.94 371.56 99.63 354.89 99.58Z" fill="#0F1F37"/>
<path d="M77.467 34.4176C56.4801 37.2571 43.7587 56.1494 47.7154 75.2092C49.544 84.0319 55.4239 92.886 64.3462 97.4754C66.4218 98.5442 68.119 99.3353 69.0859 101.735L74.351 114.764C74.5664 115.294 74.2722 116.116 74.062 116.378C73.7835 116.724 73.0163 117.112 72.1756 116.97C59.7642 114.89 49.0868 108.357 41.7934 99.0157C38.8246 95.2121 36.2708 90.9842 34.3739 86.51C31.5732 79.9035 30.5643 72.6787 31.1686 65.5326L31.4208 62.5358C31.4576 62.08 31.4734 61.6242 31.4944 61.1684C31.6941 57.3229 32.6189 53.3517 33.9641 49.6843C40.5061 31.8347 57.9514 20.2196 76.8627 18.2235C80.9771 17.7886 84.0247 18.0454 87.8763 18.5064C114.17 21.6708 133.166 46.698 130.801 72.553C128.757 94.9135 112.536 112.685 90.5772 116.876C89.7207 117.038 89.0219 116.802 88.7171 116.368C88.4018 115.912 88.2757 115.021 88.5384 114.324L92.9628 102.584C94.0295 99.7492 95.8371 98.6542 98.3173 97.2763C112.589 89.3286 118.784 72.4692 113.64 57.0872C108.495 41.7052 93.6932 32.2171 77.4617 34.4176H77.467Z" fill="url(#paint0_linear_38_20)"/>
</g>
<defs>
<linearGradient id="paint0_linear_38_20" x1="116.109" y1="35.3134" x2="45.4607" y2="101.126" gradientUnits="userSpaceOnUse">
<stop stop-color="#4AA0FD"/>
<stop offset="1" stop-color="#9578FB"/>
</linearGradient>
<clipPath id="clip0_38_20">
<rect width="633" height="151" fill="white"/>
</clipPath>
</defs>
</svg>
