<svg xmlns="http://www.w3.org/2000/svg" viewBox="360 240 1440 290">
  <defs>
    <linearGradient id="brand-logo-gradient" x1="707.39" y1="1207.45" x2="572.57" y2="1332.67" gradientTransform="translate(-165 -902)" gradientUnits="userSpaceOnUse">
      <stop offset="0" stop-color="#4aa0fd"/>
      <stop offset="1" stop-color="#9578fb"/>
    </linearGradient>
  </defs>
  <path fill="url(#brand-logo-gradient)" d="M468.85,303.74c-39.94,5.42-64.15,41.48-56.62,77.86,3.48,16.84,14.67,33.74,31.65,42.5,3.95,2.04,7.18,3.55,9.02,8.13l10.02,24.87c.41,1.01-.15,2.58-.55,3.08-.53.66-1.99,1.4-3.59,1.13-23.62-3.97-43.94-16.44-57.82-34.27-5.65-7.26-10.51-15.33-14.12-23.87-5.33-12.61-7.25-26.4-6.1-40.04l.48-5.72c.07-.87.1-1.74.14-2.61.38-7.34,2.14-14.92,4.7-21.92,12.45-34.07,45.65-56.24,81.64-60.05,7.83-.83,13.63-.34,20.96.54,50.04,6.04,86.19,53.81,81.69,103.16-3.89,42.68-34.76,76.6-76.55,84.6-1.63.31-2.96-.14-3.54-.97-.6-.87-.84-2.57-.34-3.9l8.42-22.41c2.03-5.41,5.47-7.5,10.19-10.13,27.16-15.17,38.95-47.35,29.16-76.71s-37.96-47.47-68.85-43.27Z"/>
  <path fill="#0a172f" d="M1500.71,376.86c0,45.08-36.54,81.62-81.62,81.62s-81.62-36.54-81.62-81.62,36.54-81.62,81.62-81.62,81.62,36.54,81.62,81.62ZM1476.83,381.27c1.4-11.89-2.64-26.57-9.91-37.03-13.83-19.9-39.15-28.34-62.72-22.56-11.63,2.85-20.66,8.7-28.7,17.62-16.36,18.16-18.84,44.8-6.71,66.43,11.07,19.75,34.87,30.62,57.74,27.54,28.41-3.83,46.92-23.28,50.31-51.99Z"/>
  <path fill="#0a172f" d="M812.43,377c0,45.05-36.52,81.57-81.57,81.57s-81.57-36.52-81.57-81.57,36.52-81.57,81.57-81.57,81.57,36.52,81.57,81.57ZM774.83,414.12c18.68-21.44,18.42-54.99-1.41-76.2-20.5-21.92-54.33-24.01-78.45-6.26-25.58,18.83-29.43,59.12-8.12,83,21.67,24.29,64.77,26.09,87.98-.54Z"/>
  <path fill="#0a172f" d="M972.57,304.64c.03-6.05,6.54-6.91,10.64-6.76,5.29.2,9.1-.41,13.23,3.76l-.55,95.11c-.1,17.1-10.13,31.51-22.23,42.47-29.2,26.43-81.57,23.81-107.7-6.7-8.33-9.72-15-21.78-15.08-34.88l-.59-93.55c-.02-3.5,3.01-6.05,6.07-6.06l9.93-.05c5.79-.03,8.04,3.91,8.06,9.04l.44,86.54c.07,13.17,8.47,23.49,18.32,30.63,20.67,14.98,53.73,10.93,69.05-8.15,5.58-6.95,9.99-15.2,10.03-24.06l.39-87.35Z"/>
  <path fill="#0a172f" d="M1063.93,408.02c.1,12.1,9.1,21.19,19.3,23.88,7.83,2.06,14.79,1.47,22.28-.96,3.7-1.2,9.09-.41,9.62,4.2s.59,9.34-.05,13.75c-1.25,8.68-45.73,17.24-67.01-13.56-4.47-6.47-8.35-15.23-8.37-23.52l-.41-146.72c-.01-4.86,3.47-8.08,8.04-8.1l8.08-.03c4.69-.07,7.96,3.42,7.98,7.99l.15,31.96,54.58-.09c2.13,0,3.88-.61,5.14.91,2.91,3.49-3.84,17.37-11.22,21.08l-9.72,1-39.09.22.7,87.99Z"/>
  <g>
    <path fill="#0a172f" d="M1642.91,447.05c-31.76,18.8-89.56,11.58-111.22-19.46-2.26-3.23-3.96-7.63-.76-11.11,2.6-2.82,6.89-3.74,10.05-5.88,3.51-2.37,7.73-2.08,10.05,1.81,10.1,16.9,30.87,20.87,50.37,20.79,12.17-.05,24.69-1.86,33.53-10.47,4.58-4.46,6.43-10.46,4.72-16.14-4.46-14.81-27.18-15.78-44.84-20l-33.88-8.08c-11.7-3.98-21.74-11.4-25.51-23.42-6.37-20.32,3.27-40.75,21.97-50.14,9.43-4.73,19.35-6.98,30-8.26l18.03.02,11.36,1.74c13.82,2.12,35.44,14.2,40.32,28.7,1.52,4.52-3.91,6.83-7.1,8.66-2.83,1.62-8.76,5.8-11.75,2.24-5.75-6.85-11.9-12.42-21.08-15.09-20.12-5.86-52.15-4.06-58.35,13.35-2.67,7.5.37,15.51,7.6,18.64,9.11,3.95,18.64,5.42,28.37,7.64l34.98,7.96c11.03,2.51,20.76,8.34,27.6,17.38,4.23,5.59,5.87,11.75,6.56,18.66,1.66,16.53-6.36,31.78-21.03,40.46Z"/>
    <path fill="#0a172f" d="M1723.34,295.62c0,.5-.11,1.81.33,2.37l58.63.02c.74,0,1.15-.62,1.04-1.03,2.86,1.82,2.02,4.7.48,7.4-2.84,4.97-4.56,10.25-9.37,13.88l-9.33,1.47-41.87.33.51,88.55c.06,10.9,8.38,18.55,17.63,22.43,9.61,4.04,19.46,1.42,29.19-.25,6.15-1.06,8.14,6.51,8.02,10.97-.16,6.25-1.27,10.56-7.19,12.37-17.45,5.31-36.1,3.84-51.31-6.89-11.51-8.12-20.24-20.71-20.28-35.68l-.42-147.19c-.01-4.56,4.23-7.39,7.8-7.38l8.25.03c4.58.02,8.01,3.16,8,8.13l-.09,30.47Z"/>
    <path fill="#010217" d="M1783.33,296.97c.11.41-.29,1.03-1.04,1.03l-58.63-.02c-.43-.55-.33-1.87-.33-2.37,4.93,2.28,9.81.73,15.15.68l37.9-.4c2.54-.03,5.27.01,6.94,1.08Z"/>
  </g>
  <g>
    <path fill="#0a172f" d="M1171.7,434.84l-.49,68.88c-.03,4.02-3.16,6.98-6.77,7.27l-11.15-.05c-2.42-.01-5.88-2.02-5.87-5.21l.12-138.18c4.59-39.14,34.61-67.73,73.34-71.17h14.14c45.58,3.48,78,42.89,73.98,88.2-2.81,31.67-23.57,58.48-53.66,68.34-8.34,2.73-16.15,4.86-24.99,3.99-21.64,1.51-41.78-6.06-58.64-22.06ZM1285.16,376.82c0-31.58-25.6-57.18-57.18-57.18s-57.18,25.6-57.18,57.18,25.6,57.18,57.18,57.18,57.18-25.6,57.18-57.18ZM1170.38,434h-1v71h1v-71Z"/>
    <rect fill="#010217" x="1169.38" y="434" width="1" height="71"/>
  </g>
</svg>
