<?xml version="1.0" encoding="UTF-8"?>
<svg id="Layer_1" data-name="Layer 1" xmlns="http://www.w3.org/2000/svg" viewBox="0 92 610 180">
  <defs>
    <style>
      .cls-1 {
        fill: #d3d8e2;
      }

      .cls-2 {
        fill: #edf0f5;
      }

      .cls-3 {
        fill: #f0f2f6;
      }

      .cls-4 {
        fill: #d4dae4;
      }

      .cls-5 {
        fill: #d2d8e2;
      }

      .cls-6 {
        fill: #eff2f6;
      }

      .cls-7 {
        fill: #d5dbe5;
      }

      .cls-8 {
        fill: #d3d9e2;
      }

      .cls-9 {
        fill: #d1d7e1;
      }

      .cls-10 {
        fill: #d4dae3;
      }

      .cls-11 {
        fill: #d5dae4;
      }

      .cls-12 {
        fill: #d4d9e3;
      }

      .cls-13 {
        fill: #d4d9e4;
      }

      .cls-14 {
        fill: #d5dae3;
      }

      .cls-15 {
        fill: #fdfdfd;
      }
    </style>
  </defs>
  <path class="cls-8" d="M562.65,182.97c-.14,2.1-4.09,3.32-6.51,3.75l-7.58-35.33-20.25,9.31-1.92,11.99c-.37,2.29-3.99,4.93-5.7,2.79l-2.22-10.61c-2.08-2.43-1.17-4.59-2.87-6.68l-7.94-9.76c-.76-2.88,3.98-3.56,6.15-2.34l9.93,5.6,19.21-10.34-21.72-27.63c1.39-1.92,4.58-4.29,6.78-3.56,4.26,1.4,7.18,4.79,10.87,7.16l5.95.37c-.31,3,.45,4.32,1.8,5.39,2.63,2.09,4.11,1.19,6.83.75,2.35-.38,2.07,3.3,2.29,4.55.38,2.11,3.17,3.35,4.76,4.18l17.02-7.54c2.27-1.01,5.45.1,6.49,1.65,1.44,2.14.69,5.62-1.81,6.97l-14.9,8.01c-2.24,1.2-2.27,3.27-2.47,5.55-.16,1.82,2.39,3.85,3.5,5.75-1.69,2.07-4.32,3.22-4.25,5.33.1,3.09.25,5.2,2.58,7.43l-3.13,3.32-.92,13.94Z"/>
  <path class="cls-7" d="M361.66,239.52c-2.03.8-3.74-.31-4.12-1.43-.54-1.61.08-3.46,1.98-4.2l19.48-7.57c1.57-.61,3.25-.3,3.86.48.99,1.27,1,4.01-.7,4.68l-20.5,8.04Z"/>
  <path class="cls-4" d="M401.41,223.26c-2.05.97-3.8-.11-4.41-1.52-.67-1.54.39-3.23,2.34-4.16l18.21-8.69c1.35-.65,3.57-.09,4.24.85s.64,3.52-1.02,4.31l-19.36,9.2Z"/>
  <path class="cls-5" d="M439.47,205.26c-1.78.94-3.18.15-3.83-.43-.97-.87-1.18-3.65.41-4.49l18.34-9.67c1.56-.82,2.98-1.06,4.09-.43,1.24.71,1.9,3.97.25,4.84l-19.26,10.19Z"/>
  <path class="cls-13" d="M322.92,250.96c-2.34.66-3.98-.25-4.53-1.76s.57-3.3,2.67-3.88l19.54-5.38c1.71-.47,3.15.32,3.53,1.52.44,1.41-.11,3.54-2.01,4.08l-19.2,5.43Z"/>
  <path class="cls-10" d="M185.9,247.04l-20.62-7.16c-1.14-.4-.83-3.38-.21-4.13.66-.8,2.44-1.14,3.96-.62l18.59,6.43c1.34.46,1.78,1.91,1.85,2.71.1,1.16-1.35,3.54-3.57,2.77Z"/>
  <path class="cls-10" d="M224.89,255.92l-20.04-3.53c-1.68-.29-2.29-2.18-2.26-3.15.05-1.72,1.66-2.87,3.77-2.51l19.62,3.39c1.66.29,2.48,2.16,2.48,3.14,0,1.26-1.22,3.07-3.58,2.66Z"/>
  <path class="cls-9" d="M476.4,186.12c-1.83,1.03-3.74.45-4.46-.4-.66-.77-.9-3.57.34-4.24l17.46-9.59c1.52-.84,3.34-.5,4.15.79s.64,3.26-1.19,4.29l-16.29,9.15Z"/>
  <path class="cls-12" d="M84.34,185.81c1.33.91.68,2.82.1,3.51-.9,1.07-2.79,1.83-4.34.75l-15.91-11.11c-1.19-.83-1.21-2.49-.78-3.6.38-.98,2.1-2.44,3.69-1.35l17.25,11.8Z"/>
  <path class="cls-14" d="M264.68,258.29l-20.88-.18c-1.4-.01-1.69-2.1-1.58-2.92.17-1.28,1.19-2.78,3.19-2.75l18.02.22c1.7.02,2.87.71,3.48,1.97.47.98.01,3.67-2.23,3.65Z"/>
  <path class="cls-11" d="M47.57,168.05l-15.5-9.97c-1.15-.74-1.08-2.74-.69-3.62.42-.96,2.12-2.18,3.63-1.24l16.6,10.29c1.37.85,1.11,3.34.36,4.22-.85.99-2.6,1.48-4.4.33Z"/>
  <path class="cls-12" d="M116.4,206.72c1.37.9,1.65,2.5,1.4,3.53-.41,1.66-2.46,2.73-4.21,1.6l-15.92-10.35c-1.66-1.08-2.45-2.45-1.8-3.88.55-1.21,2.73-2.62,4.26-1.61l16.28,10.71Z"/>
  <path class="cls-1" d="M150.78,226.9c1.49.78,1.46,2.5,1.32,3.26-.22,1.16-2.14,2.71-3.69,1.89l-17.91-9.39c-1.26-.66-1.47-2.44-1.15-3.39.37-1.09,2.33-2.4,3.97-1.54l17.46,9.17Z"/>
  <path class="cls-12" d="M302.24,255.09l-18.79,2.5c-2,.27-2.95-1.11-3.17-2.41s.42-3.14,2.26-3.37l18.9-2.44c1.83-.24,3.14.64,3.59,2.2.37,1.28-.2,3.17-2.79,3.52Z"/>
  <path class="cls-1" d="M17.98,142.63c1.59.93,2.08,2.59,1.7,3.58-.55,1.45-2.43,2.66-4.14,1.73l-13.14-7.17c-1.9-1.03-2.95-2.69-2.14-4.49.69-1.52,2.84-2.32,4.72-1.22l12.98,7.57Z"/>
  <g>
    <path class="cls-12" d="M968.02,569.69c-83.15-11.94-155.98-60.41-198.78-131.85-51.74-86.36-54.29-194-9.83-284.05C822.78,25.41,976.21-31.94,1110.38,17.82c61.39,22.77,112.92,67.14,144.34,124.45,44.88,81.86,49.09,179.74,11.28,265.19-24.45,55.24-66.37,102.01-119.64,131.14-54.09,29.58-116.74,39.93-178.34,31.09Z"/>
    <path class="cls-3" d="M1287.51,288.48l-5.13-1.7c-4.21-1.43-6.19,2.89-8.08,5.86l-9.3,14.59c-1.78,2.78-2.94,3.86-2.66,7.53.63,8.17.29,17.49-6.16,24.17l-9.17-27.79c-2.03-6.14-2.2-11.84-2.21-18.86-2.22.86-2.48,2.76-3.35,4.24-2.24-.07-4.01-.95-4.11-2.28l-.33-4.17-3.94-3.9c-2-1.98-3.72-3.42-6.65-2.9-5.8,1.03-11.74,1.69-17.34-.32l-4.43-4.61-5.16,2.28c-11.5-3.08-12.75-14.72-17.53-10.92-1.4,1.12-1.96,2.67-.96,4.33l4.97,8.27c1.8,3,4.26,7.96,8.36,8.28s6.47-4.3,8.59-6.91c2.46,1.73,2.73,4.25,4.21,6.4,3.56.77,7.55,3.4,6.79,7.28l-4.67,7.93c-1.75,5.15-5.47,7.04-9.26,10.09-7.59,6.1-21.5,17.65-26.39,13.83-3.34-2.6-1.33-12.46-9.81-20.84-2.89-2.86-3.44-6.35-5.48-9.66l-12.41-20.24c-2.25,1.22-3.33,1.15-5.99,1.3l7.89,16.63,4.83,8.03c6.09,21.14,16.1,23.28,18.18,30.93,2.71,9.99,19.51-3.33,22.71-.36s-2.88,13.75-6.38,21.4c-5.52,12.02-14.9,15.83-23.74,29.27-3.24,4.93-3.94,10.48-2.1,16.16,2.55,7.86,2.88,20.22-3.26,24.56-4.57,3.23-9.38,6.48-13.1,10.85-3.03,3.56,4.11,14.08-6.36,18.54-2.66,1.14-1.86,4.49-2.77,6.34-2.55,5.22-6.48,9.59-10.21,13.53-5.09,5.38-10.96,6.31-18.06,7.31-3.63.51-10.05,2.69-11.33-2.85-1.06-4.61-.83-9.86-4.28-13.97-5.74-6.83-2.08-15.06-8.1-25.83-4.03-7.21-3.96-15.8.35-22.88,2.3-3.77,2.18-7.17.94-11.41-1.77-6.02-2.57-12.37-6.62-17.43-2.07-2.58-5.04-4.74-5.49-8.32-.87-6.78,3.88-13.69-.09-17.59-1.23-1.21-3.58-1.58-5.28-1.14-4.81,1.26-6.2-1.56-8.46-4.74-2.72-3.81-9.25-2.53-12.88-.34-4.67,2.82-8.43,4.03-13.99,3.34l-10.93,2.11c-5.99-1.25-11.46-6.34-14.64-11.35l-9.4-14.82c-2.62-4.13-3.84-9.37-1.74-13.8,2.56-5.42,1.79-10.57,1.31-16.3-.31-3.71,2.74-7.11,4.29-10.18,3.03-6.02,6.72-10.95,12.2-14.84,5.19-3.69,1.56-8.05,7.71-14.28l9.25-9.37c9.06,7.85,14.08-2.46,29.06-3.6l12.99-.99c5.53-.42,2.98,10.72,3.8,12.06,1.87,3.1,8.26,1.88,12.83,5.88,3.1,2.71,8.89,5.96,12.69,3.93.6-2.41.72-6.18,2.83-7.13,7.11-3.19,11.83,5.15,24.88,3.67l11.58-1.32c5.35-3.52,5.76-18.02,4.37-19.21-.57-.48-2.48-.51-3.07.03-3.46,3.16-6.23,1.1-10.21.36-2.34-.43-5.76,2.92-8.59-.26s-5.43-8.91-3.73-12.95c5.57-2.7,11.47-4.16,13.65-5.81,6.88-5.22,14.12,5.24,22.16-.87,1.75-1.33.77-4.19-.78-5.38l-9.97-7.61,1.59-8.03c-2.77.43-6.34,1.73-7.46,4.46.13,1.83,1.46,4.73-1.24,5.49-2.22.62-4.95.15-5.67-2.51-.52-1.91-1.4-3.34-3.12-3.53s-3.26.56-4.03,2.51l-3.41,8.68c-1.35,3.43-.09,6.57,2.29,9.48-5.11,2.64-12.9-.45-14.22,4.03-.49,1.68.21,3.5,1.25,5.22,1.87,3.11.18,8.27-3.84,9.07l-7.7-14.43c-2.14-4-1.97-8.27-6.86-10.69-2.86-1.41-6.24-3.56-8-6.65-1.06-1.85-5.67-1.93-5.37-.31,1.91,10.27,13.25,12.31,15.95,18.21-2.7,1.59-2.15,4.95-3.51,7.02l-4.04,6.15c-1.21,1.85-6.85-.81-6.38-2.76.67-2.79,5.22-1.86,7.18-1.83,3.41-10.12-10-9.51-15.55-20.86-.89-1.83-3.84-2.3-5.1-.78-2.94,3.56-7.04,3.06-11.5,2.75-1.94,9.55-8.86,6.26-9.67,16.12-.42,5.19-5.29,7.71-9.97,7.84l-6.73,2.05c-1.39-2.76-4.26-2.69-6.55-3.82-3.11-1.53-2.94-7.16-1.94-10.04,2.26-6.51-.46-10.72,1.77-12.93.8-.79,2.11-1.19,3.43-1.12l14.69.81c1.57-4.14,1.93-10.55-2.1-13.22-1.81-1.2-5.06-2.2-4.03-4.97,9.29-1.43,17.09-6.19,21.46-14.54,1.8-3.43,5.35-4.66,9.22-5.88-.36-3.64-1.68-6.59-1.26-9.95.32-2.55,2.35-4.23,4.37-3.82,4.62.94.38,7.68,2.83,12.2l11.33.28c3.91-1.71,6.23-2.36,10.24-2.35,5.09,0,1.93-11.65,4.4-12.02l5.2-.77c.77-1.3-2.64-4.79.03-6.51,2.41-1.55,10.71-.62,9.45-4.63-1.5-4.79-9.28,1.96-13.4.82-3.11-.87-5.08-5.15-5.17-7.8-.19-5.69,7.08-9.62,5.07-13.93-.65-1.4-2.58-2.48-4.7-1.98-3.86.91-1.82,6.32-7.04,11.91-2.15,2.3-3.08,4.71-2.83,7.9.17,2.22,2.25,4.23,4.29,6.52l-3.39,7.57c-1.06,2.38-.85,4.64-2.53,6.14-1.22,1.09-4.36,2.87-5.5.74l-6.57-12.29-4.86,3.69c-1.45,1.1-4.48.84-5.76-1.33-2.09-3.54-2.83-9.28-1.22-13.18,1.46-3.54,5.6-4.62,7.97-7.11,7.1-7.47,5.28-19.38,19.57-27.7,4.27-2.49,11.03-7.03,16.09-4.18,6,7.17,16.01,2.58,24.87,10.93,1.62,1.53,1.87,3.86.77,5.65-.78,1.28-2.95,2.12-5.07,1.7l-9.54-1.9c-.25,2.59,2.34,3.12,2.9,4.45,1.3,3.12,2.73,6.5,6.52,6.77,2.06.15,4.85-1.69,6.68-2.44-1.17-2.31-1.31-5.12-.02-5.86l4.59-2.65-2.7-9.02c-.54-1.8,2.77-1.83,3.79-1.05,3.19,2.45,1.91,6.61,5.37,8,5.39-13.16,10.22-8.23,20.66-11.5-.06-.93.06-3.9,1.1-4.54,7.05-1.94,12.46,2.79,13.51.64.9-1.84-11.23-7.01-6.87-18.9,4.53,1.45,5.98,4.12,8.67,7.58,1.06-5.4,10.08-5.75,9.52-8.1l-.98-4.1c3.95-9.51,1.03-14.25,8.3-16.67-.09.58.3,1.25.71,1.23.5-.03,1.63-.25,2.58-.87,12.71,11.37,23.96,23.3,34.02,37.2,36.9,51.12,56.52,112.28,55.89,174.9Z"/>
    <g>
      <path class="cls-15" d="M1194.3,76.02c-.42,1.61-1.45,3.27-3.09,4.97-.71,4.1-1.8,8.06-3.28,11.89,2.2,4.52-.05,7.85-6.74,9.99-2.06,3.02-4.06,3.8-5.99,2.33-5.1-7.48-6.87-5.59-4.23,1.71,6.93,7.61,10.68,14.4-3.5,10.28-4.27-.5-4.33-.27-5.04,3.96-3.83,1.82-8.1,2.77-12.8,2.84-3.49,1.21-5.92,3.85-7.29,7.92-3.53,2.21-6.04.34-7.55-5.6l-1.29-1.2c3.3,6.71,2.28,10.99-3.06,12.83,2.25,8.25-8.26,11.51-13.67,5.41-1.74-1.96-7.62-10.97-3.35-11.6,12.93,2.79,16.33,1.43,10.19-4.07-6.53-2.51-13.18-4.76-19.94-6.73-7.48-7.73-22,4.71-26.37,11.62-2.89,9.58-7.96,16.93-15.21,22.07-5.02,5.93-1.94,20.95,6.95,10.82l3.56,1.18,6.05,11.54c2.54.48,7.35-11.91,7.18-12.65-6.15-7.43-3.93-13.01,1.68-19.44,3.25-17.24,20.81-9.4,9.36,4.22-3.75,9.07,2.95,12.12,10.64,7.52,12.82.58,5.5,9.86-3.83,9.73,2.32,5.79.15,6.74-5.18,7.7,0,7.94-.49,12.53-9.6,12.26-5.8,2.2-14.17,3.36-19.33-.05.05-.54-1.16-17.05-3.02-9.22.11,3.8.28,7.61.51,11.43-2.48,1.31-4.95,2.66-7.4,4.04-5.16,8.73-12.08,15.22-22.4,17.11,4.64,2.27,6.6,5.05,6.91,10.36.2,3.34-.55,8.05-4.34,8.15-5.76-.91-11-.86-15.71.14-.3,1.33-1.49,16.95-1.25,17.81.35,1.26,6.63,4.54,7.7,4.84.74.21,14.01-3.07,13.49-6.17.28-6.56,3.56-9.8,8.33-13.73,1.3-4.71,4.87-6.66,10.73-5.87,3.69-3.42,7.05-4.17,10.1-2.26,3.58,5.63,8.37,10.21,14.38,13.74,2.41,4.89,3.93,5,4.59.33l-10.53-8.53c-9.48-10.73-1.48-17.71,6.86-6.93,3.15,1.84,6.07,3.95,8.76,6.35,0,0,3.53,7.01,10.59,21.04,2.2-2.39,2.09-5.44-.34-9.14-.26-5.72,4.04-8.35,12.92-7.88-4.85-8.19,6.56-32.37,13.92-15.61.88.52,1.84.64,2.89.34-1.54-10.84,14.76-14.47,9.74-.89,18.52,10.34,12.49,22.63-7.65,15.36-2.25-.04-17.14,5.67-17.94,6.57-1.5,1.66,2.15,9.92,4.39,10.88,4.72-1.2,8.09-.91,12.83.28,13.86-8.3,10.13,14.77,4.28,20.49-10.91,3.5-22.44,3.37-32.89-1.78-4.13-1.32-6.41.9-6.87,6.66-5.88,2.3-11.89.6-18.02-5.13-9.28-1.99-12.17-3.7-11.18-13.49-.07-.6-.37-2.24-.95-2.36-4.6-1.03-17.46,1.67-22.52,3.02-7.23,4.46-13.85,5.24-19.88,2.33-6.57,5.78-11.63,10.65-13.29,19.55-8.94,8.32-20.5,19.64-17.96,32.82-.92,5.67-1.81,11.28-2.67,16.82,3.12,8.19,15.55,30.34,24.74,31.03,1.94.15,18.07-2.62,20.64-3.5,9.23-5.85,15.76-5.78,22.3,3.23,14.16-2.12,12.8,7.35,10.56,17.54l1.38,5.85c5.02,4.52,6.72,9.23,8.84,15.29,4.02,11.47,3.16,16.29-1.97,27.19-.46,6.92,1.28,13.76,5.21,20.51,1.45,9.24,2.6,16.46,7.97,24.29.32,4.68,1.49,8.44,3.51,11.3,17.37.84,31.23-8.7,35.67-25.83,3.83-1.93,6.14-4.54,6.95-7.84-1.68-7.39.23-12.98,5.72-16.77,9.64-6.47,13.76-9.3,12.67-21.26-3.43-14.03-4.27-19.03,4.96-31.01,11.73-11.83,24.56-25.45,26.21-42.43-5.31,2.01-10.72,3.55-16.24,4.62-4.12-.29-6.93-3.07-8.44-8.34-7.62-8.13-13.85-16.8-16.77-27.87-4.48-7.39-8.44-15.07-11.89-23.02-2.22-3.17,5.54-5.6,7.5-5.05,2.92.82,15.44,24.06,17.47,28.2,5.67,6.32,9.37,13.85,11.09,22.58,8.33-.4,26.68-13.87,31.43-20.57,2.23-3.13,8.75-12.47,3.01-14.12-2.79-.82-4.89-2.79-6.31-5.93-6.4,8.46-10.94,6.78-16.91-.74-3.61-4.54-12.14-17.19-2.79-19.23,3.91,1.26,7.35,4.01,10.33,8.26,3.14,3.1,6.93,3.53,11.37,1.31,3.84,4.36,8.48,6.23,13.9,5.6,9.74-2.95,19.76,1.37,20.51,11.82l.63.25c1.83-2.85,4.7-5.09,6.69-1.33.59,12.97,4.89,29.92,10.25,41.8,1.2,2.65,5.63-20.83,3.43-21.92,2.39-5.39,12.59-24.61,16.92-27.18,3.2-1.9,9.7-1.16,10.27,2.83-.76,76.97-30.48,150.8-86.59,204.73-54.92,52.78-125.88,77.4-201.61,74.93-87.42-2.85-167.6-46.2-217.34-118.22-28.71-41.58-45.34-90.9-48.8-141.06l-.69-10.15c-1.54-49.4,8.47-98.5,30.8-143.12,13.99-27.95,31.88-53.04,54.59-74.29,12.83-12.01,25.59-22.33,40.34-31.93,47.82-31.13,103.93-46.23,161.21-44.73,52.88,1.39,103.49,17.46,147.1,46.88,10.36,6.99,19.5,14.14,28.58,22.77.78.74.22,1.78-.79,1.74Z"/>
      <g>
        <path class="cls-6" d="M733.17,308.85c-1.44-3.13-.58-6.77-.69-10.15,2.13,2.94.45,6.76.69,10.15Z"/>
        <path class="cls-3" d="M1166.31,453.2c-3.18-3.46-1.65-10.48.77-13.59,5.51-7.11-.04-14.87,7.56-17.72,8.11-3.04,9.78-13.58,12.34-11.6,4.09,3.17,2.66,8.84.88,12.89l-11.92,27.09c-1.36,3.1-6.62,6.22-9.63,2.94Z"/>
        <path class="cls-6" d="M905.46,197.89c.03,1.5-5.29.81-5.04-1.21.57-4.58,8.98-11.65,9.04-8.44.04,2.16-3.83,2.5-4.41,4.47-.32,1.08.35,2.2.41,5.19Z"/>
        <g>
          <path class="cls-6" d="M800.16,295.72c1.89,2.87,7.67.34,10.48,4.37,3.39,4.85-3.31,12.65,1.13,17.62,2.34,2.62,5.16,3.81,9.19,3.64l3.19,2.2c2.38,1.65,7.35-10.27,15.97-7.31-.06,1.33-1.15,2.85-.11,4.74,4.3-8.35,6.93,2.1,18.41,1.65,4.99-.2,7.58,3.33,10.51,6.68l9.42,10.77c9.3.12,17.07,6.14,17.37,15.65.07,2.4-3.55,4.4-4.4,6.01.01,3.49,4.79,3.39,7.31,2.6,2.59-.58,6.31.48,8.43,1.71l10.03,5.78c6.06,1.14,10.99,2.26,15.38,7l7.28,4.49c8.35,10.3-7.84,18.69-8.68,24.9-.77,5.67.15,10.77-1.84,16.5-1.16,3.32-2.98,9.6-7.21,10.41-5.37,1.04-11.36,1.2-14.03,7.44l-.05,8.61-9.23,16.83c-1.05,1.92-5.52.62-7.62.41,1.69,3.52,3.66,5.61,2.8,8.34s-3.81,4.37-7.36,4.18c-.78,3.24-1.99,5.11-5.56,5.3,3.79,4.13,3.24,8.37,1.29,12.62l5.21,5.06-.19,8.57c1.61,4.47,5.5,6.54,9.75,9.51-2.56,3.76-7.46,2.94-10.92,1.18-11.32-5.75-16.46-15.97-19.91-27.55-2.44-8.18-8.25-15.01-9.93-23.71l-4.03-20.85-5.67-33.51c-1.58-9.32-16.59-14.14-18.67-19.23-3.32-8.15-6.39-16.13-12.25-22.83-3.11-3.41-3.25-8.05-.09-11.64-2.93-3.82-2.26-8.09.24-11.9,1.64-2.58,4.97-4.76,5.91-7.95,1.81-6.12.38-13.14-2.98-18.57-1.63,1.18-2.68,2.36-3.84,2.45-2.57.18-10.67-7.49-11.3-10.26-3.25-14.19-11.94-10.53-14.76-18.11-1.62-4.35-4.43-4.17-8.44-4.12-3.77.04-6.58-4.01-9.42-6.27-13.22-10.52-3.84-12.81-8.7-24.31-2.27-5.38-3.3-11.07-2.79-17.21-4.37,1.61.29,10.49-1.76,18.77-2.36-4.13-4.02-7.7-4.14-11.84l-.55-18.48c-.12-3.93-2.14-7.03-1.71-11.52,2.01-20.66,8.23-40.14,16.91-58.97,7.1-15.42,13.38-30.3,22.59-44.45,7.41-11.41,15.07-22.01,25.65-30.45,1.96-.93,5.49.77,6.83,1.7,4.21,2.95-.98,8.49,6.08,11.45,3.82,1.6,6.36,1.78,9.88-.49,5.05-3.25,8.98,4.57,12.85,4.99,2.6.29,4.45-4.81,6.6-3.45.69.43,1.28,1.46,2.12,2.92,7.65-5.05,3.04-15.09,13.49-15.34,1.69,3.19-.58,5.71-.82,8.39-.3,3.34,1.65,6.34-.25,10.36,6.51-.66,8.05-8.85,12.22-6.92,1.4.65,2.48,2.49,1.98,4.41-1.73,6.62-8.23,10.5-15.03,9.09-2.02-.42-4.74.48-5.74,2.01-3.11,4.75-7.53,5.84-12.37,7.94-10.24,4.45-25.54,15.9-18.97,23.11l5.68,3.17c1.94,3.16,3.79,5.53,7.12,7.05,7.25,3.3-3.19,13.27,2.73,17.22,2.58,1.72,5.41-2.04,5.54-4.56.26-4.95,2.81-8.37,6.97-9.95,5.83-2.21,5.28-7.99,6.62-12.9l7.58-13.05c1.41-2.42,5.24-1.06,6.99-.29,10.51,4.6,2.35,13.9,5.87,16.67,3.87,3.05,6.95-3.11,12.26-4.78,6.04,8.5-1.62,15.37,7.73,22.26,2.72,2.01,3.53,5.43,3.09,8.3-.6,3.94-4.33,3.97-7.45,5.29-5.82,2.46-10.3,2.54-16.38,1.13-6.53-1.52-14.17,2.82-17,8.33,3.95-1.46,9.24-4.17,11.29-.75,1,1.67-.58,5.67,1.07,7.31,3.29,3.26,8.25,1.8,8.23,3.9,0,.51-.83,1.46-1.57,1.75l-8.71,3.41c-1.16.45-2.87.67-3.68-.03-.94-.82-1.18-2.53-1.17-4.73-3.91,1.18-8.91,1.5-11.95,5.17-1.19,1.44-1.08,6.22-4.14,6.35-5.1.2-7.97,2.35-11.15,6.39-1.61,2.04-5.77,3.13-6.04,6.61-.4,5.16-3.44,8.5-7.88,11.22l-7.4,4.53c-6.94,4.25-.88,13.62-4.17,21.84-.51,1.27-1.55,2.04-2.51,2.05-5.79.07-3.14-14.74-4.24-16.77-.6-1.12-9.97-4.4-10.92-3.66-3.8,2.93-6.2,1.94-9.63,1.18-7.76-1.72-11.36,4.92-13.12,10.94-2.39,8.16-4.83,16.5,1.17,23.92,1.44,1.78,7.6,1.26,8.73-.88,1.34-2.52,2.37-4.84,4.44-5.61s6.7-.57,6.82,1.85c.28,5.64-4.11,10.02-6.02,15.01Z"/>
          <path class="cls-3" d="M962.2,139.51c-1.14,3.97-7.69,13.43-12.33,17.26-5.82-1.87-10.35-7.68-10.45-14.17l-.22-14.87c-.1-6.62,11.31-5.03,10.25-18.82l-5.24-2.58c3.91-7.31,4.07-19.66.75-22.71-3.92-3.59-10.45.85-13.06-4.79-.88-1.9.63-3.46,2.01-5.24-.08-1.05-.89-3.05-.13-3.92,2.95-3.37,8.77-.75,13.65-4.17l2.68-5.13c13.6-10.45,24.07-1.24,31.59-5.42,5.02-2.79,9.73-3.09,15.32-3.83,7.05-.93,14.57.46,16.44,8.35l-5.67,4.55c6.43,3.46,14.27-2.92,16.15,1.56,1.4,3.36-7.45,7.75-9.73,12.9-4.24,9.55-.8,20.2-7.35,26.72l-5.38-.28c-1.48,3.76,4.26,6.11,4.09,11.2-.07,2.08-1.74,3.64-3.68,5.03-9.69,6.98-16.34,1.39-21.25,7.74-6.85,8.85-16.48,3.83-18.43,10.63Z"/>
          <path class="cls-3" d="M903.81,71.73c-3.63-3.21,4.35-5.25,9.55-10.25-1.54-.19-4.32-.55-4.7-2.02-1.35-5.28,4.47-12.7,7.74-11.17.88.41,1.29,1.45,1.8,2.59l1.13,2.54c.56,1.26,3.74.18,3.24-.52-1.06-1.49-2.48-2.35-2.48-3.71,0-1.45,1.41-2.45,3.12-2.74l14.48-2.48c6.75-1.16,13.56-1.57,19.44,1.99,1.31.79,2.16,2.14,2.18,3.28.02.94-.81,2.75-2.24,3.32l-16,6.43c-5.02,2.02-8.68,2.4-12.59,5.89-4.16,3.71-9.25,6.48-12.89,11.45l-9.39-3.38c-1.04-.38-1.94-.8-2.42-1.23Z"/>
          <path class="cls-6" d="M849.73,99.12c-2.62-.28-5.29-2.94-8.64-.43-1.45,1.09-4.62,1.03-6.26.16-1.35-.71-3.92-2.66-3.17-4.9.67-1.98,3.73-2.33,5.78-2.38-1.21-1.92-2.24-2.86-2.67-4.9-.25-1.18,2.3-1.79,3.34-3.33,1.77-2.6,5.29-6.85,8.79-5,1.62.86,2.42,3.49,4.6,4.04,1.41.36,3.81-.61,5.68-1.26,2.7,2.48-.69,6.12-1.16,9.08-.55,3.43-.64,9.51-6.29,8.91Z"/>
          <path class="cls-6" d="M842.67,77.12c-5.59,1.09-9.04,8.05-11.87,5.76-1.14-.92-1.3-2.46-.03-3.83,4.93-5.34,10.24-11.81,14.68-8.91,1.12.73,1.51,2.36,1.26,4.04-.27,1.82-1.71,2.49-4.04,2.94Z"/>
          <g>
            <path class="cls-2" d="M907.96,136.99c-1.21,1.91-4.59-.12-5.54-2.24-2.32,2.82.35,4.19.93,6.56-7.87,1.43-12.03-13.48-10.48-15.15l7.7-8.28c2.55-2.74,1.1-6.24-.44-8.82-.75-1.25-.98-5.01-2.95-4.95-8.93.28-16.91-1.54-15.36-8.32.87-3.78,5.87-9.79,10.06-8.75,2.29.57,2.99.93,5.71,1.45l7.8,1.49c4.43.85.52,8.71,6.68,12.07,3.79,2.07,5.22,6.62,3.04,10.32-3.28,5.58,6.49,7.24,4.62,12.79-.65,1.92-4.69,4.91-6.51,3.26-1-.91-1.06-2.26-1.31-2.78-.5-1.04-1.95-1.4-2.68-.49-2.95,3.67,1.01,8.23-1.27,11.84Z"/>
            <path class="cls-15" d="M886.11,98.5c-4.51-1.03,0-8.96,2.39-7.93s.24,8.54-2.39,7.93Z"/>
          </g>
        </g>
      </g>
    </g>
  </g>
</svg>
