<svg xmlns="http://www.w3.org/2000/svg" viewBox="360 250 230 230">
  <defs>
    <linearGradient id="favicon-gradient" x1="707.39" y1="1207.45" x2="572.57" y2="1332.67" gradientTransform="translate(-165 -902)" gradientUnits="userSpaceOnUse">
      <stop offset="0" stop-color="#4aa0fd"/>
      <stop offset="1" stop-color="#9578fb"/>
    </linearGradient>
  </defs>
  <path fill="url(#favicon-gradient)" d="M468.85,303.74c-39.94,5.42-64.15,41.48-56.62,77.86,3.48,16.84,14.67,33.74,31.65,42.5,3.95,2.04,7.18,3.55,9.02,8.13l10.02,24.87c.41,1.01-.15,2.58-.55,3.08-.53.66-1.99,1.4-3.59,1.13-23.62-3.97-43.94-16.44-57.82-34.27-5.65-7.26-10.51-15.33-14.12-23.87-5.33-12.61-7.25-26.4-6.1-40.04l.48-5.72c.07-.87.1-1.74.14-2.61.38-7.34,2.14-14.92,4.7-21.92,12.45-34.07,45.65-56.24,81.64-60.05,7.83-.83,13.63-.34,20.96.54,50.04,6.04,86.19,53.81,81.69,103.16-3.89,42.68-34.76,76.6-76.55,84.6-1.63.31-2.96-.14-3.54-.97-.6-.87-.84-2.57-.34-3.9l8.42-22.41c2.03-5.41,5.47-7.5,10.19-10.13,27.16-15.17,38.95-47.35,29.16-76.71s-37.96-47.47-68.85-43.27Z"/>
</svg>
