<?xml version="1.0" encoding="UTF-8"?>
<svg id="Layer_1" data-name="Layer 1" xmlns="http://www.w3.org/2000/svg" viewBox="0 0 979.12 902.28">
  <defs>
    <style>
      .cls-1 {
        fill: #fff;
      }
    </style>
  </defs>
  <path class="cls-1" d="M600.17,249.44c-.47,1-1.75,3.08-.97,3.46l3.57,1.73-3.64,2.17-4.28-5.54,5.33-1.83Z"/>
  <g>
    <path d="M319.29,84.06l-10.29,5.85.19-3.31c.03-.53-2.66-.88-3.03-.5-1.33,1.37-2.79,4.81-3.39,7.03l-25.38,15.94c-.34-.11-2.15-.95-2.39-.54l-1.43,2.44c-.24.41-1.26,2.48-1.51,2.07l-1.78-3.05-1.65,1.48c-.46.41-1.5-1.35-1.75-1.78-1.16,3.34-1.39,5.32.38,7.34l-5.37,4.84-2.87-.84c-.42-.12.22,1.74.42,2.31l-12.36,10.21-19.58,17.54-3.53,3.6-13.04,13.74c-.19.2-2.2.19-2.28-.08-.11-.39.4,1.45.58,2.12l-11.85,14.48-16.16,20.84-5.74,7.91-4.66,7.65-5.04,7.72-1.49-1.23c-.3-.25-.94.06-1.41.23-.37.13.64.98,1.97,2.13l-4.74,8.5-3.22-2.16c-.65-.44-1.62,2.3-1.35,3.03s1.42.83,3.24,1.08l-6.86,12.77c-1.73.81-4.23,2.44-4.84,3.74l2.2.34c.45.07-.21,1.14-.5,1.73l-4.92,10.57-2.66-1.47c-1.43,1.77-1.44,4.16-.21,6.79-1.09,5.88-4.22,8.84-6.22,14.29l-4.79,13.07c-2.65-.06-5.12.3-5.2.97l4.12.62c.71.11.01,1.78-.34,2.69l-1.11,2.65c-.26.62-1.98-.02-2.72-.2l2.12,2.62c.5.61-.94,2.62-1.2,3.42l-4.75,14.79-2.18-.65c-.48-.15-1.89,1.09-1.39,1.34l2.6,1.32c.4.2.35,1.58-.07,1.76l-2.14.89-6.43,4.3,5.81-.44c.76,1.22.87,2.76.3,4.18l-3.37,2.94c-1.12.66-2.78,1.92-3.05,2.95-.84,3.15,4.57,5.7,2.68,10.56l-2.12-1.86c-.38-.33-1.27.44-1.45.9l-1.05,2.61c-1.05-2.17-1.5-1.74-1.57-.02l1.7,2.96c.37.64-.41,2.38-.66,3.27l1.91-.51c.33-.09,1.46-.14,1.26.12l-1.65,2.1c-.32.41-1.95,1.14-1.56,1.47l2.5,2.13-6,.02,1.04,6.87c.28,1.83-5.38,4.93-9.2,5.98-.35-3.85,2.42-5.89,5.76-7.77l-4.72-.78,4.4-1.59c-.07-.06-1.94-.76-3.95-1.51l3.11-12.73,2.16,1.76c.38.31.82-.41,1.12-.91.25-.42.93-1.96.44-1.97l-3.84-.02,2.64-14.31,4.68-.99c-1.31-1.2-3.18-3.46-2.87-5.17.43-2.32,1.75-4.1,3.86-5.22l-1.73-2.48c-.49-.71,1.16-2.65,1.95-3.51l4.75,5.52,1.16-1.28-6.19-6.4,12.36-35.11,2.02-5.4,1.99,1.09c.36.2,1.52-1.02,1.15-1.2l-2.65-1.29,6.82-15.11c2.11-.29,4.8-.93,6.34-1.91,1.16-.74-1.05-4.13-2.94-4.57l3.6-7.76c1.98-.28,3-.58,3.89-1.38,1.28-1.16.71-2.66-.82-4.31l5.64-11.8,2.91.88c.48.15,1.67-1.16,1.41-1.59l-1.8-2.99,6.33-10.76,1.43,2.05c.29.42,1.89-.78,1.51-1.12l-2.24-2.03c7.51-12.46,16.06-24.57,25.33-36.07l4.48-5.55,7.16-8.96,23.25-25.95,2.34,1.03c.35.16-.21-1.61-.44-2.41,17.46-16.95,36.49-33.56,57.18-47.1l6.04-3.33c2.03-2.11,5.26-4.86,7.49-4.73.28.02,1.47,1.15,1.72,1.26.38.17,1.43-.77,1.15-1.07l-1.86-1.99,26.56-14.59c1.55,2.83,4.07,3.82,7.24,1.63l-6.41-1.48c3.03-2.43,6.9-4.62,10.9-6.06l26.4-11.37c.76.68,2.08,1.89,2.07,1.86s.31-1.54.53-2.63l23.82-8.11c.46.72,1.61,2.67,1.74,2.24l.91-3.05,23.39-6.38,1.65,3.23c.28.54,1.87-1.12,2.06-1.37.46.68,1.24,2.17,1.97,2.18l3.94.09c.68.02,2.22,1.02,2.84,1.28s1.96-1.32,2.07-1.98c.14-.83-.73-1.51-1.88-2.68l-.57-2.94c-.12-.62,2.47-.67,2.61-.48l.28,2.63c.06.58,1.93,1.1,2.7,1.14l-.99-4.48,9.99-1.79.56,5.91c3.11-1.33,5.07-3.43,5.28-7.02,38.57-5.36,78.85-4.78,117.35,1.79,1.11.19,3.61,1.46,3.13,2.26s-1.43,1.78-3.09,3.53c-.82-.12,1.75,1.28,2.39.93l2.69-1.44,2.08-.05c.46-.01.67-1.51.31-1.81l-2.31-1.94,15.95,2.99-.48,2.37c-.1.48.89,1.56,1.11,1.13l1.44-2.84,18.93,5.26-.45,3.35c2.46-.81,3.22-1.14,4.63-1.23,1.31-.08,1.89.73,2.72,2.16,2.77-.8,5.66-.6,8.75.76,1.68.72,2.28,2.18-1.23,1.77l.08,1.65c.03.54,1.89,1.66,2.17,1.19l2.02-3.39,13.06,4.46c-.13,1.06-.33,2.61-.32,2.57l4.62-.73c1.03-.16,1.44,2.17,1.4,3.42-.02.64,2.53,2.19,2.94,1.69.52-.63.63-.86,1.4-2.32l22.63,10.37c.64,1.02-.79,2.27-1.44,1.8l-2.47-1.78c-.44-.32-1.69.8-1.74,1.34s.65,2.62,1.13,2.89l7.18,4.03-.99-7.05c6.06,1.39.93,11.21,9.58,10.42.23-3.71-5.82-3.25-2.16-6.28l21.09,11.97c0,.7-.02,2.47-.02,1.95l-2.09-1.25c-.4-.24-1.85,1.05-1.45,1.3l2.02,1.29,2.5,1.6c.64.41,2.05-1.7,2.62-2.45l10.49,7.24,27.72,21.28c.8.61,1.98,1.62,2.28,2.27s-.23,2.01-.69,3.69l4.67-.41,11.69,10.93-3.06,2.02c-.71.47,1.06,2.32,2.02,2.5.85.16,1.4-.37,2.85-2.26,2.4.76,4.89,4.08,5.15,7.34l2.58-.26,8.6,8.78-4.85,1.19c1.91,1.78,3.65,2.53,7,1.42l7.46,8.56c-.35,1.88-3.47,3.01-5.57,1.69l-1.93,1.19,1.19,3.27c.18.5-1.08.89-2.48,1.58l-4.5-5.76,2.5-1.52c.39-.24.14-1.72-.05-1.74l-3.12,2c-1.22.78-5.11-4.52-5.01-4.8l1.49-4.16c-.42.04-2.17.9-4.18,2l-3.8-4.36,7.15.97-.29-3.04c-.04-.4-.64-.66-.98-.43l-2.11,1.4-2.59-2.54c-.7-.69-2.59.58-3.53,1.61l-13.58-13.94,9.25,5.52-2.42-6.97c1.46-1.04.45-2.64-.9-2.82-.83-.11-2.24,1.3-3.08,1.47l-5.41,1.12-14.15-12.29-30.23-22.71-7.72-4.07c-1.18-4.29-3.77-5.3-8.17-5.34-3.76-.03-3.92-8.97-4.4-8.57l-1.06.88c-.26.22.03,1.02.17,1.42l.79,2.17c.17.46-1.68.08-2.19-.17l-6.23-3,.59-3.92c-2.15,1.16-3.14,1.89-3.96,2.06-.99.21-3.06-1.43-3.97-2.1l-3.93-2.9c-.88-.65-.26-2.92.05-4.95l-4.13-.44c-.94-.1-1.92,1.9-2.64,2.96l-9.37-4.13-1.1-4.22-2.35,1.94c-.54.44-2.41-.24-3.08-.61l-5.97-3.32-10.43-2.7c-.26-.49-.75-2.73-.05-3.03l4.83-2.07c-1.94-1.61-6.26-1.02-8.91.48,1.14.34,3.33.58,3.13,1.08l-.77,1.99c-.19.5-1.67.1-2.19-.09l-10.04-3.51,2.5-4.02c-1.11-.11-2.95-.24-3.24.34l-1.65,3.24-16.82-5.36c-.26-.08-.81-2.2-.97-1.98-.23.34-1.61,1.58-2.01,1.48l-12.67-2.99-2.91-3.36c-.85-.98-3.89,3.83-11.95.43l3.42-3.62-6.48-.81c1.17,2.02,1.89,3.39,2.09,4.29-19-2.44-37.11-3.81-56.3-4.04-15.75-.19-30.94,1.87-46.7,3.08l-6.41.96-24.3,4.3c-1.52.27-4.99-1.57-5.83-1.97l-.44,3.89-12.16,2.61c-1.06-4.15-2.72-1.9-2.19.51l-21.77,6.91-32.73,12.66-10.42,4.89-9.11-1.42-6.64-.98,1.65,5.26,3.02-1.02c.49-.16.55,3.51.1,3.76ZM735.43,128.71l-.51-4.64c-.07-.67-1.96-.58-2.52-.95l-6.41-4.27,1.21,6.21,2.7.29c.53.06,1.19-1.56,1.09-1.47l1.95,4.12c.32.67,3.09.94,2.49.72Z"/>
    <path d="M532.03,863.99c-2.37-1.23-2.69-4.23-2.27-6.81l29.82-4.09c-.97,1.48-2.34,4.12-2.8,5.4,1.52,1.94,2.14,2.65,2.15,3.78s-2.07,3.54-3.11,2.97l1.62-4.08c-.23-.22-2.66-.05-2.66.58l-.02,4.03c-15.76,2.53-31.88,4.29-47.92,4.66l-10.84.25.15-1.72c.04-.43-.8-1.2-1.01-.84l-1.52,2.56-13.8.32-2.13-3.26-2.29,2.74c-1.62,1.93-6.04-4.49-10.73-.38-17.32-.77-33.67-2.48-50.51-5.76-28.51-6.57-55.59-15.17-81.66-28.38l-1.24-2.11c-.3-.51-1.91.13-2.68.34l-10.18-5.09c1.52-1.98,2.25-4.01.67-6.35l-2.47,5.59-22.22-12.65,2.18-1.6c.46-.34-.3-1.87-.87-1.99l-2.29-.48c-.35-.08-.93-.44-.78-.17l1.61,3.08c.08.22-2.07.37-2.31-.19l-1.12-2.68-.71-1.72c-.12-.29-.98.09-1.01.41l-.2,1.83-8.87-5.37c-.4-.24-1.01-2.7-.81-3.13.27-.57-1.74.31-2.77.73-15.9-10.69-30.33-21.69-45.04-34.99l7.69-.19-3.85-2.94c-4.14,3.2-7.36.37-10.34-2.6l-8.52-8.5-1.71-1.7c-.35-.35,1.23-1.69,1.41-1.86-1.37-2.2-1.46-3.77,0-7.14l-5.33-3.71,2.53,5.4-3.99-2.79-1.23,2.43c.11-.22-4.82-2.45-4.29-6.24l-3.6-1.2,1.75-3.88c.44-.96-1.22-3.1-2.26-3.3-.48-.1-1.59,1.07-1.61,1.54l-.12,2.88-6.16-7.03,1.97-5.73-4.05,3.81-5.22-7.94c2.84-2.34.18-4-1.87-1.62l-9.57-12.68-6.62-9.48-6.7-10.19c-9.25-14.07-17.58-28.18-24.15-43.35l2.33-.56c.36-.09,1.33-1.1.99-1.27-3.65-1.79-3.56-.09-5.82-2.75-.68-.8.02-4.1.93-3.58l2.33,1.32c-.07-.04,4.69-1.49,4.49-1.23l1.96-2.56,9.8,19.08-2.64,1.14c-.46.2.15,1.82.64,1.68l3.04-.88,7.96,14.04-1.85,4.58,3.11-2.68c9.11,15.09,19.42,29.75,30.34,43.62l.12,6.81,2.95-2.97,4.14,5.14-3.63,3.22c1.41.8,2.91,1.79,3.17,1.35l1.77-3,8.35,9.52-5.72,1.15,3.45,2.13c.69.43,1.99-.73,3.66-2.17l6.97,8.95c-.91,2.04-1.08,3.4.12,5.16l1.33-4.79,18.69,18.46-1.91,1.36c-.33.23.31,1.87.65,1.66l2.69-1.68c.66-.32,3.76,2.5,3.37,3.9l-1.5,5.44,4.42-4.28,15.49,12.31-1.17,2.43c-.14.29,1.09.42,1.3.18l1.18-1.3,2.79,2.18-2.34.99c-.54.23-.77,1.5-.83,2.13l5.66-1.87,14.69,10.84,7.62,4.62-1.42,2.39c-.31.51,1.19,2.03,1.63,1.62l2.34-2.18,11.38,7.33-3.3.26c-.5.04-1.16.87-1.57,1.22-.52.44,1.44,2.31,2.19,1.79,2.17-1.5,6.76-1.62,9.75.01l25.19,13.76-5.57,1.34c2.82,2.28,7.27,2.13,10.33.39l7.82,3.71.24,2.66c.03.33.59.2.81-.05l1.41-1.63,36.23,13.52,28.38,7.07,31.91,5.07,4.83.39,14.11.98,13.34.09c.97,0,3.27.19,3.46.98l.76,3.17,2.6-3.85c.63-.94,3.33,1.02,4.13,2.11.31-.08,1.24-.84,1.69-.66l2.3.92c1.12-1.8,3.31-2.82,5.78-2.78l11.56.18c4.89.07,10.6-3.45,15.77.48l-3.12.13-2.11,5.54,6.23,2.41c.83.25,2.85-2.92,2.37-3.6Z"/>
    <path d="M618.74,843.36l-5.25.94-.36,6.16-11.86,3.53-3.05-1.43c-.89-.41-2.73,2.01-3.31,3.26l-14.32,4.39.37-1.88c.1-.5-.22-1.35-.6-2.88l-1.51.6c-.42.17.41,1.56,1.1,2.95-3,1.87-8.08,3.47-11.71,4.04l-5.19-6.8c-.2-.26-2,.58-2.24.8s-.22-1.22.03-1.42l1.25-1.08c3.57-3.08,7.27-4.88,12.23-4.9l33.79-10.38,1.93,1.61c.36.3.73-2.64,1.16-2.81l12.73-4.81,21.32-9.51,28.57-15.47c18.12-11.15,34.97-22.87,51.2-36.81,1.36-1.17,3.67-1.97,5.12-2.25,1.15-1.57,3.38-5.19,5.13-6.13,2.42-1.3,3.28-2.79,4.93-4.4l10.64-10.4c.64-.63,1.7-2.36,2.47-2.21l4.03.76-2.28-3.21,9.07-8.76c.59-.57,1.3-2.66,1.85-2.4l3.44,1.63-1.49-4.12,3.46,2.28,4.37-7.12-5.83,3.06,11.81-13.88,4.9,1.77,4.69-7.16c-.52.16-2.41,1.47-3.07,1.37l-3.35-.51,7.96-10.37,10.82-15.4,1.45,1.71c.32.37,2.06-.98,1.7-1.31l-2.07-1.93,5.72-8.72c1.17-1.78,3.37-4.39,4.08-6.85.22-.79,2.72-.32,2.91.48l.98,4.05,2.23-3.95,6.32.71-2.68,1.66c.25,3.83-1.94,8.34-6.1,10.02-3.42,1.38-6.3,1.16-9.48-.47-1.28,2.27-.9,5.56,1.39,6.69l.52-3.51c.12-.83,2.64-.46,3.01-.14.18,1.15.14,1.89.53,2.07l2.17,1.04-12.13,17.96-6.27.09.2,5.15,1.6-2.25c.23-.32.53-.25,2.32.12l-17.24,21.72-14.36,16.55-13.52,13.83-8.54,7.87c-.41.38-2.6,0-3.12-.23s.32,2.81-.1,3.18l-11.27,9.88-10.63,9c-.35-1.81-.34-2.62-.75-2.8s-1.93-.88-1.43-.65c.88,2.88.91,4.42-.85,5.74-15.44,11.57-30.76,22-47.13,31.73l-2.11-1.52c-.29-.21-1.63.13-1.52.47l.85,2.73-9.88,5.08-1.74-3.15c-.35-.63-2.33.68-2.96,1.01-.79.41.31,2.15,1.73,3.73l-19.75,9.6,2.43-6.4-3.24.05.35,1.87c.07.38-.29,1.13-.52,1.45-.35.47-2.02-1.11-2.34-1.77.06-2.67-2.21-1.95-2.54.35l5.75,4.7-10.02,3.8.49-3.09c.07-.44-1.85-1.79-1.87-1.32l-.22,5.17-6.61,2.55c-.32.12-1.67-.3-1.59-.64l.89-3.76Z"/>
    <path d="M884.29,409.11l1.47,33.55-.07,13.4c0,.58.08,2.95-.44,2.89l-3.78-.41,4.44,8.56c-2.79-1.72-4.95-3.46-7.22-5.65,1.41-2.45.48-2.24-.76-1.39-.79.43-2.89,1.65-2.98,1.06l-.5-3.09-1.04-42.44,2.35-1.06c.3-.14-.3-1.29-.63-1.25l-1.96.22c-2.76-21.64-5.85-43.54-10.97-64.81l2.57-.71c.45-.13.58-1.64.13-1.52l-2.98.82-3.25-12.77,2.29-1.31c.43-.25.26-1.96-.21-2.08l-2.92-.72-1.24-3.24c-.39-1.01,1.04-2.53,2.3-4.38l-3.75-.34c-11.97-39.41-29.93-76.07-52.38-110.47-.25-.45-1.6-2.33-1.14-2.54l3.53-1.58-1.21-4.12-4.48,3.38-12.74-17.22-10.59-13.77c.94-1.24,4.57-3.5,6.55-3.73.64-.07,2.4,2.44,2.97,2.15l3.2-1.61,6.2,8.1-4.28,3.72c-.85.75,1.42,3.44,2.56,3.34,1.41-.12,3.16-.93,5.88-2.23l9.29,13.42c.27.4-.76,2.99-1.07,3.36s1.73-.25,2.97-.64l9.34,14.61-5.09,1.68,3.81,2.03c.64.34,1.6-.59,2.99-1.45l23.03,43.28c10.2,19.16,16.4,40,23.18,60.57l-1.91-.04c-.34,0-1.65-.25-1.43-.04l1.41,1.4c.71.71,2.34,1.49,2.11,2.31l-1.08,3.83c-.25.89,2.31,1.87,3.58,2.39l2.76,12.23,3.28,13.7c-1.31.03-3.13.48-3.82,1.34-.99,1.23.22,3.72,1.3,4.06l3.03-3.39,1.18,7.36c.07.44-1.14,1.74-1.39,2.11-.34.49,1.3,1.36,2.37,1.9l5.22,37.24Z"/>
    <path d="M355.83,762.57l-3.31.11c-.43.01-1.38-.74-1.7-1.03-.42-.38-1.15,1.5-1.83,2.87-3.48-3.46-6.39-7.46-8.15-12.06l3.36.08c.48.01.72-.46,1.66-2.22l-5.16.91c-1.84-3.72-1.66-8.96-.72-13.84,2.13-11.06,7.83-21.48,18.29-26.51,7.84-3.78,17.08-2.87,24.47.78l-1.69,1.98c-.31.37.94,1.92,1.28,1.58l2.32-2.27c8.99,3.76,15.89,12.73,16.62,23.51.68,10-3.5,20.47-10.49,27.78-11.24,11.75-29.52,10.91-40.96.65l6.02-2.32ZM364.88,762.88l.22-2.91c13.3,2.23,22.5-13.43,21.52-25.82-.56-7.1-6.77-11.89-12.8-12.83-12.66-1.98-21.72,16.04-19.71,27.33.85,4.76,4.32,8.32,8.91,9.97l1.86,4.26Z"/>
    <path d="M618,745.36l-10.73,5.51-4.64-10.5,23.89-11.65,7.86,21.28c-3.14,18.52-22.44,30.51-40.09,24.28-12.22-4.31-17.18-15.75-19.79-27.11-2.17-9.44,0-19.82,7.47-26.68,10.76-9.89,28.01-14.15,37.81-3.55l-8.5,10.03c-2.71-1.98-6.7-4.04-10.02-3.44-10.25,1.86-15.58,10.85-12.8,20.58l3.6,9.36c1.73,4.49,5.94,7.91,9.6,8.98,5.5,1.61,10.02.02,14.04-3.15,4.4-3.46,5.76-8.19,2.29-13.93Z"/>
    <path d="M576.83,170.06c-9.21,14.51-29.17,15.22-41.47,3.91-15.35-14.11-7.7-43.76,7.35-51.75,13.1-6.95,31.27-1.98,37.96,11.52,5.72,11.54,3.21,25.22-3.84,36.33ZM562.97,165.81c6-6.88,8.52-16.88,6.1-25.24-1.66-5.72-6.44-8.8-11.14-9.28-12.95-1.33-19.26,16.82-16.54,28.76,1.2,5.25,4.89,7.81,8.82,8.83,4.46,1.16,9.13,1.1,12.77-3.07Z"/>
    <path d="M514.01,797.99l-15.45,1.7,8.69-31.07,1.2-4.56,7.24-28.22,15.45-1.56,30,56.77-15.21,2.96-5.31-11.55-23.4,3.29-3.21,12.24ZM535.12,771.41l-10.04-20.68-5.23,22.54,15.27-1.86Z"/>
    <polygon points="669.08 710.56 676.78 721.36 698.56 702.77 706.21 711.84 689.32 725.91 672.48 739.32 646.74 704.8 636 691.25 652.77 677.34 667.13 665.22 674.68 674.55 654.29 691.95 661.83 701.02 678.11 686.89 685.88 696.64 669.08 710.56"/>
    <path d="M314.09,169.17l5.29-3.37c1.85-1.82,4.53-3.72,6.7-4.28l5.2,9.77,15.55,25.39c2.65,4.32,8.87,3.65,12.5,1.66,3.46-1.89,8.07-7.12,5.43-11.84l-20.2-36.03,12.32-7.23,19.53,35.81c5.29,9.7,1.81,20.88-6.75,27.13-12.35,9.02-27.9,9.11-35.19-3.03l-20.4-33.98Z"/>
    <path d="M618.88,208.14c-14.63-3.08-27.41-16.01-23-29.32l12.3,1.72c-1.72,7.77,4.63,14.38,12.4,15.55,2.36.35,5.42-1.41,6.2-3.3.71-1.72.16-5.17-1.23-6.52l-12.82-12.51c-3.79-3.69-5.49-10.28-4.56-14.8,1.13-5.47,4.81-11.24,10.56-12.88,13.22-3.77,28.2,4.12,32.64,16.34l.35,8.86-12.7-1.05c-.02-3.58-.81-8.18-3.25-10.06-3.48-2.66-7.68-4.16-11.41-2.21-3.05,1.59-2.22,6.19-.14,8.27l11.54,11.56c5.81,5.83,7.05,14.1,2.95,21.51-3.49,6.31-10.75,10.74-19.83,8.83Z"/>
    <path d="M608.47,647.52l10.72-6.96c4.46-2.89,8.89-2.76,14.73-4.04-1.85-1.07-3.39-1.3-7.48-2l15.24-13.58,5.36-5.84c.4.13,1.76,2.43,1.28,3.18l-2.85,4.46,6.15-3.3-1.31-.63c-.28-.13-.69-1.11-.39-1.1l3,.05.05-2.84c.01-.85-1.67-1.92-3.19-3.38l3.69.14c-1.33-2.46,1.42-6.79,3.65-6.45.88.13.98,2.88.73,4.07.01.28.32.48.52.22l1.13-1.49,1.56-2.07c.34-.45,1.87.49,2.25.9.51.55-.3,2.13-1.01,2.87l-21.16,21.93-9.25,7.93c-25.44,21.81-56.01,37.29-88.39,45.7l-14.36,3.28c-.89-1.13-1.29-1.69-1.56-1.82l-1.4-.69c-.41-.2.11,1.82.31,2.78-22.31,4.08-44.94,3.95-67.68.69-1.12.13-4.13.38-4.58-.55l-2.48-5.18-.25,5.09-1.48-2.06c-.23-.33-1.07.51-1.8,1.19l-20.34-4.9c-4.67-1.13-9.24-2.87-13.08-5.01l2.78-.82c.47-.14.95-.89,1.98-2.18l-6.99-.33c.29-.9.73-2.73.06-3.32l-3.44-3.03,9.95,3.21c1.28.41,3.23,2.59,3.96,3.99.25-.34,1.86-1.76,2.73-1.45l3.64,1.31-.42,2.17c-.07.35.92,1.01,1.13.73l1.44-1.89c15.02,3.52,29.82,6.58,45.87,7.59,46.22,2.9,91.47-10.57,129.99-36.07l1.02-.48ZM609.28,648.51l-.59.13c-.62.56-2.6,1.94-2.43,2.76l.79,3.71,9.23-5.85c-3.33.21-5.76.23-7-.75Z"/>
    <polygon points="341.16 689.58 311.77 708.28 286.57 724.07 274.01 713.65 295.09 651.32 306.62 661.75 291.26 705.25 329.31 680.17 341.16 689.58"/>
    <path d="M476.78,153.8l.56,19.28-13.38,1.05-2.33-60.31,16.66-.53c7.9-.25,16.94-1.18,23.55,4.66,9.36,8.26,8.21,24.93-2.32,31.87-6.65,4.38-14.21,3.61-22.75,3.98ZM488.85,141.37c3.64-.23,5.32-5.95,5.17-8.53-.18-3.01-1.92-7.52-5.58-7.72l-12.52-.67.27,17.74,12.67-.81Z"/>
    <path d="M464.01,760.58l-8.12,9.69-3.45,26.69c-5.41-1.95-9.16-2.68-14.91-2.51l4.16-26.24-16.17-39.47,15.96,3.32,9.74,24.57,15.56-20.82,15.91,1.84-18.68,22.92Z"/>
    <polygon points="417.94 183.92 416.05 177.31 404.74 138.84 388.35 144.28 384.84 131.72 431.47 118.44 435.07 130.15 418.22 135.32 430.98 180.8 417.94 183.92"/>
    <polygon points="688.7 212.06 672.93 232.35 665.91 241.34 655.26 232.25 685.2 195.92 672.04 185.13 679.84 175.27 716.82 206.91 708.15 215.95 695.56 204.89 688.7 212.06"/>
    <path d="M333.87,283.81l-1.82,1.15c-.4.25-1.44-1.91-1.1-2.23l14.09-12.96c1.97-1.81,3.76-2.31,5.76-2.57.47-1.09,1.95-3.97,3.09-4.73l6.57-4.36c.41-.27,2.32.37,2.67.71s.39-2.59.8-2.86l10.87-7.11c.5,1.94,1.29,3.61,2.26,3.44l8.99-1.57c.41-.07.45-1.85.42-2.28-.04-.62-1.25.1-2.12,1l-6.46-1.71c2.72-2.15,5.13-3.97,8.07-5.32l27.86-12.81c1.9,1.31,4.27,4.21,5.19,5.96l4.05-3.07c.36-.28,1.35-1.05,1.32-1.01s-.99-.94-1.14-1.08l-4.44,1.54c1.6-3.98,3.41-5.04,6.66-5.95l11.52-3.21c1.25-.35,3.09.91,4.87,2.53l-.25-3.87,10.3-1.81,8.8-1.15,6.18-.81,24.14-1.71-.22,6.36,1.95-4.19c.55-1.17,4.37-2.31,5.76-2.14l29.98,3.73c-.22,2.94-.4,3.26.33,6.17l1.93-5.58,10.09,2.01-3.44,3.37,5.34,3.87c.96-1.56,1.32-2.56.85-3.31l-2.52-3.99,14.52,4.47-3.73,7.04-6.17-2.01.31-2.02c.04-.27-.73-.83-.86-.6l-1.22,2.2-10.12-2.38.69-2.46c-4.86,1.35-8.84.96-13.83.27l-18.07-2.48c-1.09-1.6-3.19-3.69-4.62-3.68s-3.58,2.21-4.48,3.52l-13.01.59c-21.7.82-42.56,5.33-62.94,12.5-.7-.23-2.1-.84-2.42-.51l-1.89,1.95-23.22,10.87c-19.86,9.3-51.55,35.96-51.01,36.15l-5.14-1.84Z"/>
    <path d="M852.25,585.34l5.69-17.07,3.19,3.34c1.61-2.74,3.76,2.64,7.08-.19l-6.76-5.06c-.94-1.37-2.73-4.29-2.1-5.51l2.46-4.75,2.97.66c.46.1.47-1.83.62-2.27.21-.59-2.6.42-3.82.74l9.97-53.25,2.37-1.23c.51-.27-.49-1.32-1.2-2.09l6.39-3.43,1.05,1.77c.28.47,1.22.76,2.25,1.09l-.9-2.27c-.22-.55.49-1.46,1.8-2.19.85,9.7-1.99,21.55-3.51,19.91l1.64,1.77-8.45,40.87-2.28,7.89-2.28-.56c-.48-.12-1.62,1.92-1.12,1.93h3.23s-2.37,3.07-2.37,3.07c1.91,9.2-4.63,10.89-4.45,11.14l1.5,2.1-2.34,7.95c-.17.21-1.65-1.28-1.62-1.53l1.37-2.6c.17-.32-1.21-.61-1.46-.34l-1.08,1.16-7.83-1.04Z"/>
    <path d="M130.6,630.78l-2.88-6.17c-2.99-6.4,6.35-10.45,3.92-11.83l-2.49-1.41c-.62-.35-1.61,1.27-2.81,2.64l-1.08-3.46-2.29,3.54-2.44-7.28c1.31-.35,2.9-.08,4.67.68l1.16-2.59-2.97-.69c-.73-.17-1.36-2.37-1.65-3.07l-1.13-2.71c-.26-.61-1.56.7-2.69,1.84l-2.69-5.49,1.94-.46c.56-.13.26-2.19.27-2.77s-2.52.83-2.7.29l-1.76-5.37c-.15-.47,1.09-1.83,1.47-2.14.51-.42-2.54-1.34-2.75-1.96l-3.36-10.11,3.1-3.04-2.72.73c-1.35.36-3.81-6.43-.84-10.22l3.46,1.33c.69.26,1.01-2,1.44-3.63l-4.53,1.31,1.19-4.23c.18-.63-.53-2.06-.96-2.42l-.62,4.11c-.12.82-2.43,1.87-3.2,1.95l-3.94-15.39c-.22-.85-.29-2.67-.24-3.41.06-.93,2.96-1.21,4.4-1.59,1.64-.61-.94-5.84-2.61-5.23l-3.42,1.24-4.77-31.6,2.06-3.04c.45-.67-1.48-1.86-2.42-2.59l-1.38-17.99c2.99-.99,3.74-1.79,4.93-3.58l2.27-3.4c.48-.72,3.47.1,3.22.51l-2.62,1.5c-.3.17.43,1.27.76,1.18l2.33-.62,1.11,16.61-2.73-.23c-.45-.04-.77,1.09-.52,1.47l1.86,2.73,1.52-3.37,1.61,13.62-3.71,2.78,4.03-.24,4.15,25.73-2.43-1.17-1.22-.58c-.44-.21-.18,1.71.28,1.88.74.28,3.15,1.42,2.75,2.09l-1.92,3.16c-.28.46.88,2.28,1.15,1.8l2.18-3.97c1.28,4.13,2.78,9.62,3.05,14.11-1.65,1.38-3.44,3.23-3.55,4.31l1.98-1.22c.56-.35,2.19-1.76,2.36-1.14l.85,3.15,3.78,14-2.47-.09c-.44-.02-.79,1.81-.35,1.86l3.11.34,4.24,12.8-3.64-2.08c-.71-.4-2.04.94-2.92,2.01-.57.7,1.16,2.86,2.02,3.08,1.04.27,2.49-.31,4.54-1.39,3.72,6.69,4.88,8.75.63,12.97-.48.48.21,2.55.64,2.59l2.85-1.98c.8-.55,2.86,2.48,2.04,3.07-2.09,1.5-6.58,5.45-3.44,7.64l2.12-3.2c.45-.68,3.43-.06,3.74.69l3.34,8.07-3.69-1.88,5.04,14.45-7.04,2.19ZM98.4,521.25l3.94,5.07c5.22-2.59,5.02-7.54,3.8-11.8l-2.21,6.25-2.84-3.76-2.68,4.23Z"/>
    <path d="M103.15,432.88l-.66,22.77c-.04,1.54-1.51,5.1-1.25,5.4l-5.47,2.42.57-1.93c.13-.44-1.01-1.55-1.36-1.25l-2.98,2.49-.54-3.44c-.14-.9,1.29-2.35,2.32-3.53l-2.35-.75c-.22-20.76,1.44-40.3,3.82-61.28,1.37-1.02,3.74-1.51,5.69-.72,1.71.69,5.12,9.28,4.71,12.67l-1.06,8.84-2.91-4.08c.32,2.38.72,3.52,1.64,6.21,1.43,4.2.48,10.76-.31,15.16l-2.58-.35c-.41-.06-.36,1.9-.76,1.99s2.17-.39,3.49-.61Z"/>
    <path d="M283.39,356.53l3.73,2.12-3.27,7.58c-.2.47-2.29.45-2.16-.04s.56-1.63.82-2.13l1.43-2.68c.39-.72-1.49-2.91-2.19-2.53l-4.11,2.21,6.2-14.38,3.22,3.17c.71.7,2.82-3.16,2.95-4.21l-5.75.52,7.24-13.26,2.16,2.2.17-5.7c7.1-11.7,14.98-22.55,23.96-32.4l3.18,3.18c.49.49,2.09-1.49,2.4-2.03l-5.08-2.46,10.6-10.68,3.46,1.4,5.58.57-6.04,6.2-1.88-3.39.12,5.57-7.26,7.33c-.32.32-2.49-.2-2.84-.48-.47-.38.72,2.97.35,3.44l-11.27,14.63-4.86,7.5c-.64.98-2.35,2.44-3.34,2.54l-2.06.22c-.33.04-.13,1.42.19,1.36l2.55-.5-11.81,20.93c-.74,1.32-1.65,3.56-2.76,3.51-1.5-.06-2.67-1.02-4.05-2.58.13-.14-.8.9-1.12,1.26s1.09,1.7,1.58,1.98Z"/>
    <path d="M782.11,487.62l-3.43-20.14,10.84-9.52-2.82.5c-.53.09-1.85-.9-2.3-1.19l-3.23,5.02-.28,1.84c-.07.48-1.72,1.53-1.84,1.07l-.75-3.09-3.02,2.49c-.83.69-3.5-.32-3.96-1.28l3.56-6c3.28.43,5.65.78,9.03-.66l-11.93-2.47.43,4.1-22.21-3.77,15.22-2.84c1.35-.25,4.16,1.52,5.13,2.31.15.05,1.24-1.09.93-1.27l-2.27-1.37,4.7-.88-6.52-10.99,10.8,6.29,3.14-16.91.66-9.05c1.28,2.28,1.29,3.84,1.58,6.23l1.15,9.24-2.66,1.41c-.55.29,1.99,1.17,2.49,1.64,2.15,2.06,1.15,6.57-.44,8.84l-1.01,5.55.96,1.41c.3.44,1.11-1.64,1.55-2.09l4.37-4.43-2.55-2.11,11.05-7.03-7.83,11.72,22.41,4.26-22.71,3.71,7.61,12.25-12.33-8.48.23,5.53c.05,1.11-2.13,1.87-3.64,2.48l2.46,1.81c.63.46-.93,2.07-1.65,2.64l.84,2.35-1.77,10.86Z"/>
    <path d="M193.94,467.5l1.81-3.62-4.36,3.34-1.04-4.72-11.88,8.07,6.27-9.41c1.33-1.99,3.95-4.51,6.16-4.22.55.07,3.07,1.83,3.09,1.29l.09-3.37c.02-.72-1.83-.2-2.56-.06l-5.55.06-.04,3.57-23.68-3.89,25.75-4.46c1.44,1.37,3.21,2.81,4.48,3.59,2.34-3.07.52-5.99-2.17-7.98l4.59-24.83,3.45,24.39c.09.66,2.07,2.18,1.67,2.35l-3.1,1.35,5.73.24-2.8-3.62,10.38-7.13-7.71,12,13.25,2.29-9.06,2.03.46-2.97-6.78,3.91,5.55,8.23c-2.99,1.44-4.94.19-7.34-1.95l-1.12,9.65-3.52-4.11Z"/>
    <path d="M833.7,631.56l5.03-11.93,3.46,4.39,5.72-4.59-4.7-3.9c-1.59,2.74-1.78,3.08-3.92,3.59l4.74-12.14c1.61.3,3.16.59,3.14.59-1.13-2.56-1.93-4.27-1.28-6.23.47-1.44,2.3-2.77,4.04-3.71-2.01-1.61-.63-6.47,1.43-8.22,2.94-2.51,6.64-2.02,9.36.53l-3.26,2.77c-.73.62,1.58,2.62,3.17,3.03l-5.84,16.16-2.01-.8c-.44-.17-1.16,1.07-.73,1.27l2.41,1.11-4.11,9.23-5.12,10.8-.17-4.11c-1.18.13-3.05-.24-3.42.46l-2.11,4.11-5.82-2.4Z"/>
    <path d="M599.54,254.3l3.64-2.17-3.57-1.73c-.78-.38.5-2.46.97-3.46,2.58.89,4.42,2.05,6.77,4.54l2.52.29c13.4,8.25,25.33,17.99,36.56,28.6-.71.62-1.38,1.26-1.46,1.25-.06,0,.79,1,.68,1.02-.14.02.68-.34,1.8-.83,7.77,7.21,14.88,15.45,20.89,23.88l-4.02.79c-.45.09.16,1.99.4,2.39.66,1.07,2.24,2.75,2.77,2.1l2.55-3.19,4.55,6.52.53.69,2.27,2.59-3.04.99c-.4.13.37,1.87.76,1.73l2.65-.97,2.32,3.01c.59.77-.55,2.98-1.53,3.41-1.61.72-3.41,1.29-4.24.71s-1.49-2.99-1.67-3.73c-1.8-1.3-3.76-3.33-4.78-5.12l4.94.4c.74.06,1.6-1.87,1.75-2.38l-.51-.43c-.3.39-1.24,1.37-1.61,1.05l-1.71-1.47-5.42-.46c-2.5-.21-1.69-7.88-5.46-7.66l-19.25-20.77-11.14-10.68-6.97-5.21-22.95-15.67Z"/>
    <path d="M600.59,246.93l-5.33,1.83,4.28,5.54c-2.29-.73-6.32-2.34-7.34-4.26-1.22-2.31.75-5.3,2.58-5.75,2.12-.52,4.32,1.35,5.8,2.65Z"/>
    <path d="M270.04,497.7l-5.4-2.6c.37,1.51,2.06,3.34,1.47,3.61l-3.37,1.51-2.16-12.4-.9-7.76-1.5-11.26c-.21-1.6.97-4.91,1.77-6.28-.55-1-2.37-4.65-2.24-6.33l1.02-13.65,3.78,7.28,3.02-2.04.66,24.79-2.28-5.51c-2.41,2.66-3.76,8.18-2.44,10.51.29.51,2.16-.2,2.46-.7l1.95-3.32,4.17,24.15Z"/>
    <path d="M392.59,667.75l-1.1-2.33c-.19-.39-1.04.68-1.94,1.75l-9.59-5.1c-8.5-4.52-16.31-8.51-23.95-15.42l7.01-1.72c-2.57-1.74-6.18-.34-7.99.64-1.33-1.11-2.47-1.77-3.98-2.33l-5.88-4.52c2.85-3.42,5.51,1.4,9.52-2.35l9.08,6.84c.31.23.04,2.08-.16,2.41s2.19-.92,2.51-.72l8.99,5.71-7.33,1.63,11.64,6.02-2.91-6.57,19.76,10.83-3.68,5.23Z"/>
    <path d="M832.54,289.01l-3.03,4.21c-9.43-24.04-21.47-45.5-34.85-66.99l1.31-1.84c.79-1.12-3.54-3.43-2.12-6.53l10.62,15.86-2.61.99c-.44.17.3,2.39.68,2.09l2.64-2.08c9.91,17.27,19.08,34.89,27.37,54.3Z"/>
    <path d="M278.53,539.89l.76-2.44c.11-.37-1.23-.92-1.51-.65-.41.41-1.03,1.55-1.07,2.13l-.17,2.58c-.02.34-.54.22-1.77.07-4.87-13.29-8.78-26.38-11.44-40.21,1.73-1.01,4.65-1.5,5.77-.72,1.22.85,2.41,3.78,2.35,4.91-1.5,0-2.58-.11-2.56.35l.07,2.26c.02.62,1.76.17,3.3-.27l9.31,30.99-3.04,1Z"/>
    <path d="M340.96,635.09l-14.71-13.84-2.88-3.14-9.06-9.98c2.89-.45,4.62,1.29,5.43,3.54l1.42-.71c.81-.41-2.2-3.09-1.52-3.45l2.75-1.45,13.38,13.75c.29.3.32,2.6-.05,2.79s1.66-.22,2.3-.35l12.74,11.1c-.84.84-2.47,2.5-2.82,2.05l-2.62-3.41c-.19-.49-2.18,1.02-4.36,3.11Z"/>
    <path d="M218.49,342.76l-5.47,14.36-.92-2.2c-.2-.47-1.41-.58-1.73-.16l-1.58,2.11c-.35.47-2.46-.35-2.3-.53,4.37-13.93,9.64-25.91,15.76-38.9l5.93,3.52-8.81,19.77-1.62-.31c-.24-.05-.99-.09-.97-.07.02.01,1.8,2.16,1.71,2.4Z"/>
    <path d="M687.9,561.88l-2.01,6.49-3.28-1.52,4.5-9.79,3.7,1.01c.64.18,3.24-4.75,3.62-4.56l-2.23-1.11-3.73,3.29,3.75-9.93,5.86-15.62,2.97,2.82,1.47-3.51c.29-.69,2.19.21,2.58.82.99,1.55-2.96,13.89-6.9,19.71-2.38-1.21-3.82-.42-.91,1.21.57,1.01-.43,4-1.53,5.85l-1.38,2.3c-.34.56-2.04-.04-2.28-.14.48,2.23.1,5.41-1.12,7.08-.76-.06-2.28-.39-2.36-.82l-.72-3.59Z"/>
    <path d="M415.66,841.61c-2.12-.68-3.92-2.1-5.52-4.21.14-.13-1.17.3-1.1.58l.54,2.03-11.6-3.2,4.53-2.77,10.25,2.73c.11.96-.02,2.17.56,2.42l3.19,1.44.8.6,2.01-3.07,17.24,3.09c-1.1,1.17-1.57,1.6-1.64,1.71-.04.06,1.71.78,2,.89l2.85,1.12,1.99-3.05,8.78,1.25c.62,1.33,1.78,3.15,2.09,2.59l1.51-2.7,12.38,1.31c.43.05,1.46,2.44,1.54,2.87s.82-.72.94-1.13c.08-.28.6-1.52.89-1.51l15.29.46-1.46,3.25-8.18-.11-18.81-.26.58-2.35c.09-.35-1.23-1.16-1.34-.82l-.9,2.72-26.63-3.08-5.56-2.44-6.31-.13c-.16,0-.32-.09-.93-.21Z"/>
    <path d="M872.67,495.15l.68-5.75,2.07.49c.48.11,1.25-1.13.79-1.31l-2.97-1.15.79-14.26,5.5,1.64-.67-1.71c-.18-.45.52-1.28,1.05-1.32l5.82-.46-1.34,20.98-3.8-3.26-7.92,6.13Z"/>
    <path d="M764.85,350.44l-1.79,3.74-3.83-10.95-9.64-22.04,3.57,2.39c.7.47,2.33-.72,4.36-1.82l10.86,25.72.2,3.14c.05.84-2.67.23-3.73-.18Z"/>
    <path d="M854.74,382.44l-1.23-7.37,2.53.48c.61.12.14-2-.35-2.37s-.72-.33-2.93-.42l-1.23-7.53,2.24-2.9c.61-.79-.6-3.39-1.57-3.27-1.52.19-2.4-.25-2.45-.97-.1-1.57-.27-4.05-.28-4.06,2.44,1.62,2.18,1.45,1.88,1.25l-.4-4.14c-.07-.7.39-1.18,1.22-2.1,4.79,20.22,8.59,39.34,10.01,60.19l-2.06-2.27c.49-2.73-1.26-2.29-2.31-.05l-.95-11.36c-.04-.48,1.27-2.12,1.68-2.39.55-.35-2.44-1.36-2.53-1.99l-1.27-8.74Z"/>
    <path d="M277.82,382.44l-4.47,15.01-1.9-3.23c-.36-.61-1.71.33-2.44.93l-2.17,1.78c-.42.35-.38-2.48-.23-3.05l1.59-6.22,7.87-22.83,3.34.34c-2.11,2.37-3.43,5.62-3.32,8.72l2.66-1.27c.58-.28,2.35,0,2.71.4l-3.64,9.41Z"/>
    <path d="M765.87,556.06l2.32-1.88c.54-.44,1.47,2.26,1.18,2.98l-5.1,12.82-2.35-1.61c-.52-.36-1.84.99-2.42,1.33-.43.25-2.13-.73-1.87-1.15l1.36-2.21,6.77-20.24,1.7.4c.3.07,1.34.18,1.15-.07l-1.74-2.33,1.86-8.79,5.81,1.7c.7.21,1.12,2.72.52,3.15l-3.41,2.47,1.35,1.25c.53.49.04,2.27-.24,2.93l-2.72,6.64-.84-2.66c-.5-1.59-4.51,1.64-4.41,1.95l1.05,3.31Z"/>
    <path d="M262.91,420.88l-.53,6.02,5.54-2.86-1.64,9.22-1.49-2.09c-.34-.48-1.77-1.84-1.84-1.27l-.38,3.1.16,3.63c.03.71-2.31.53-3.79.22l5.87-37.25,1.97,2.61c.37.49,1.68.31,2.86.32,2.01.46,2.54,2-.67,1.94l1.86,2.68-1.85,12.22-6.06,1.51Z"/>
    <path d="M308.32,592.54l1.89-1.28,2.05,1.92-3.02,8.17-4.38-5.37c-.3-.37.21-2.11.49-2.49s-2.89-.47-3.15-.87l-10.82-17.01c-.49-.77-2.27-1.98-1.78-2.23l2.83-1.42c1.56-.79.78,4.8,1.57,4.89.37.04,1.33-.11,1.23-.46l-.67-2.49,3.68-1.49,9.13,14.01-3.39,2.36,4.33,3.76Z"/>
    <path d="M863.94,435.5l.32,11.51-.02,18.95-3.96-2.91,2.81-4.97-2.78,2-1.82-49.22c.37-.43,2.29-.68,2.88-.2s1.27,2.39,1.35,3.23l.49,5.09-2.34-.84c-.46-.17-.38,1.95-.31,2.44s1,.11,2.57-.35c.48,2.07-.06,4.86-1.46,7.02l2.28.9c-2.68,1.54-4.63,7.71-.03,7.37Z"/>
    <path d="M707.65,513.14c.28-.13.94-1.36,1.09-1.63.23-.39.64,0,2.13.88-.89,5.85-1.99,10.91-5.55,16.67l.67-5.7c-1.05.03-2.65.17-2.82.91l-.97,4.03c-1.08-1.18-2.07-1.85-2.39-2.73-.36-1.01.87-3.86,1.56-4.74l6.48-30.54,1.94-2.74-1.29-3.79c-.34-.99,1.97-2.82,3.09-1.97.41.31,1.35-1.6.84-1.69l-2.86-.49.82-10.47c.08-.99,1.32-3.43,1.75-4.19-1.72-7.33-1.75-14.83,2.13-21.31l.78,7.48,3.79.14c.1,1.34-.19,4.76-1.15,5.77l-4.28,4.49c-1.09,1.14.48,4.43,1.36,6.28l3.74-.73-1.03,6.88-1,12.76-6.29,1.93,5.63.48-3.36,19.51c-.1.6-1.09,2.8-1.41,2.39l-1.61-2.02c-.29-.36-.98-1.93-1.38-1.72l-1.89,1c-.53.28.05,1.79.24,2.54l-1.1,1.47c-.33.44-.78,2.34-.29,2.1l2.63-1.26Z"/>
    <path d="M217.41,563.76l-4.83,6.6-5.34-14.57c2.81-.8,4.56-2.21,5.27-3.61h-5.23c-1.08,0-1.83-2.52-2.23-3.66l-1.42-4.1c-.37-1.05,2.54-2.18,3.56-2.58l1.98-.78c.53-.21,1.84,1.03,1.54,1.51s-1.11,1.55-1.55,1.95l-2.49,2.27,3.58-1.08c.78-.23,1.52,1.54,1.88,2.6l5.27,15.45Z"/>
    <path d="M170.53,660.87l-13.37-24.22,4.74.74c3.01,3.93,5.33,9.25,5.17,14.4l1.74-1.33c.23-.18.45-.19.64.08l1.1,1.62c1.86,2.75,2.48,5.56,1.03,8.26l.88-.15c1.26-.25,3.23.92,4.23,2.49l12.58,19.88-1.1,1.4c-.28.36-.21,1.72.24,1.65l2.83-.48,9.67,13.21,6.85,8.33-2.2-.03c-.37,0-.52.18-.82.46l.37,1.05c.46.84,2.08,1.06,4.03.6l8.92,9.8-4.69,1.26-9.15-11.14-.49-.46-27.84-38.76,1.79-1.97c.23-.25-.2-1.31-.51-1.19l-2.07.77-3.94-5.42-.61-.86Z"/>
    <path d="M221.79,591.41l-8.86-20.05,3.45-.1c.83-.02,1.89-2.25,2.4-3.4l9.34,20.28-6.33,3.28Z"/>
    <path d="M828.23,656.06l-3.07.05c-1.16.02-1.5,7.02-2.88,6.55l-3.8-1.3,3.22-6.87h2.42c1.74.02-.95-4.18,1.73-7.18l2.94,5.49,6.35-4.16c-.63-.89.7.98,1.1,1.56.51.72-.27,2.93-.74,3.71l-4.28,7.13c-.25.14-2.68-.8-2.74-1.46l-.28-3.52Z"/>
    <path d="M382.46,830.78l6.03,1.42-2.57-2.95,10.34,3.2-3.83,1.22,2.15.99c.33.15-.44.99-.98,1.49l-35.09-12.64.07-1.26,7.04,2.14.5-2.35,9.3,3.74-2,2.09c3.19-.52,6.65-.95,8.88-.16l2.26.8c.36.13-.72,1.06-2.08,2.27Z"/>
    <path d="M710.81,417.81l-1.77,3.83-5.49-27.53,3.07,2.12,2.09-9.46,3.29,11.67-5.46,6.16c3.03,4.02,4.17,8.03,5.03,12.88l.56.38c.46-.05,2.98-.1,3.25.69l1.52,4.5c.17.49-1.22,2.21-1.54,1.8l-1.61-2.04-2.49,4.6c1.2.95,1.82,1.58-1.35,1.99l-.82-5.87c1.67-1.72,2.41-3.15,2.73-4.83l-1.01-.9Z"/>
    <path d="M755.02,584.64l1.57,2.25c.53.76-.57,2.7-1.45,4.37l-6.11-3.53,5.93-12.26c3.55,0,5.32-1.63,8.51-4.45l-1.69,5.68-2.45-.08c-1.69-.05,2.06,3.62.16,6.07-.57.73-2.54,1.36-4.47,1.95Z"/>
    <path d="M282.74,558.75l-6.41-14.04,6.24-4.67,5.42,12.7c-1.29.61-3.15,1.18-3.41,1.79l-1.83,4.22Z"/>
    <path d="M838.88,320.37c-1.19-3.33-1.5-6.61-.73-10.72-.03.01-3-1.23-3.33-2.1l-3.35-8.89c-.36-.95.6-3.31,1.53-3.61s2.63,1.32,2.97,2.28l7.34,20.78-2.66-.59c-.64-.14-.9,1.06-1.76,2.85Z"/>
    <path d="M834.59,647.49l-2.43-5.84-1.11,4.29c-.2.76-2.63-.8-3.91-1.44l3.31-6.23c3.35.37,5.22-.45,8-3l4.3,3.44-3.37,6.65-2.79-2.26-2.01,4.39Z"/>
    <path d="M631.87,817.61l-12.57,6.31c-.63.32-2.63-.44-2.99-1.06-2.96-5.04,4.44-.66,6.73-1.19.87-.2,1.12-2.26,1.11-3.75l15.82-7.73c.83-.4,2.86-.79,3.64-.48s1.92,2.08,1.83,2.5l-2.79-.79c-.27-.08-.95-.28-.88-.05l.62,2.02-6.89,3.14c-.4.18-1.83-1.12-1.8-1.56s-1.44,2.45-1.83,2.64Z"/>
    <path d="M291.94,570.63l-.96-3.52c-.11-.39-1.42.13-1.5.53l-.64,3.49-6.24-11.76,4.7,1.44,1.91-5.29,7,12.63-4.28,2.48Z"/>
    <path d="M692.8,345.48c-.06,1.59-4.45-1.88-4.82-1.55l-2.46,2.19-4.56-8.29,1.85-4.76-1.89-2.46c-.43-.55,2.41-2.46,2.77-1.88l4.06,6.54c-1.91,1.45-3.28,3.2-2.72,3.87,4.53,1.74,7.94,1.84,7.77,6.33Z"/>
    <path d="M298.03,109.25c-.16,2.46.12,3.87-.56,4.33l-3.78,2.55-2.09-2.81c-.49-.67,1.93-2.18,2.77-2.68l15.54-9.15,5.58-3.29,2.17,3.49-14.88,8.26-4.76-.69Z"/>
    <polygon points="681.76 106.98 675.75 107.77 662.85 100.53 663.03 95.78 674.82 102.93 681.76 106.98"/>
    <path d="M585.78,247.33l-7.16-3.62c.76-.95,1.54-1.74,1.37-2.06l-.95-1.87-1.27-2.5c-.39-.77,2.94-1.68,3.7-1.24l8.37,4.84-3,2.11c-.7.49-.75,1.68-1.07,4.34Z"/>
    <path d="M679.37,587.17c.05.52-2.73,1.27-3.04.54s-.73-2.37-.83-3.17c-.04-.32.8-1.75.51-1.89l-2.53-1.27,5.03-7.63,5.87,4-3.28,6.39c-.83-1.11-1.37-1.96-1.67-1.63-.51.58-1.89,1.78-1.58,2.28l1.51,2.39Z"/>
    <path d="M239.47,744.11l4.57,1c1.25.27-1.04,3.55-2.07,3.39l-15.08-13.47,4.63-1.94,7.31,7.32c.19,1.07.7,4.01.65,3.69Z"/>
    <polygon points="512.69 56.17 494.94 55.35 497.97 53.1 494.15 51.16 512.08 51.65 512.69 56.17"/>
    <path d="M121.87,525.56l-1.03,4.85-3.86-21.12c-.12-.65,0-2.63.42-2.82l3.16-1.39,1.39,9.67c-1.07,1.27-2.41,3.22-2.05,4.25,1.01,2.88,6.51,6.23,3.9,6.41l-1.93.14Z"/>
    <path d="M236.98,160.05l.09,2.21c.03.63-2.2.44-2.77.32l-5.1,2.17,15.75-15.79,1.09,4.71-6.8,6.25-1.35-1.62c-.28-.34-.92,1.29-.9,1.75Z"/>
    <path d="M699.15,378.98l-5.44-13.77,3.34-.41c.37-.05.46.75.14.94l-1.57.91c.48.29,2.22,1.38,2.43.94l1.74-3.5c5.93,4.02-.63,6.79-.64,14.89Z"/>
    <path d="M665.27,605.82c-.18.25-2.23-.51-2.3-.83l-.35-1.52c-.11-.48,1.44-.11,2.57.17l.98-8.66,4.41-2.5c.5-.29,2.31-1.98,2.4-1.41l.5,3.26c-2.56.49-4.44,3.32-4.5,6.41l-3.72,5.07Z"/>
    <path d="M201.69,371.27l3.59-8.81,3.38,3.99v-3.98c-.01-.5,1.28-.02,1.71.28.58.39.8,1.77.61,2.51-1.24,4.63-3.42,7.21-9.29,6Z"/>
    <path d="M115.63,495.5l-1.04-8.86-.96-3.97c-.22-.89,2.05-1.66,4.08-2.7l1.66,12.29c-1.47.31-1.89.29-2.1.62l-1.64,2.61Z"/>
    <polygon points="161.41 267.06 157.55 264.57 164.21 252.65 167.07 255.72 161.41 267.06"/>
    <path d="M720.01,136.06l-3.57,1.38c-1,.39-1.55-3.67-1.18-3.86-2.11.99-6.19-1.07-6.58-3.15-.05-1.63.03-2.3-.25-2.91l-1.64-3.51,13.41,11.13,1.15.71,5.67,5.42c.52.5,2.87,1.79,2.42,2.25l-2.51,2.51-7.09-5.76.67-3.71-.52-.5Z"/>
    <path d="M768.92,713.61c-.28.34-1.91-1.12-2.33-.97l-3.19,1.14,5.7-7.17,2.56-3.11c.7-.86,3.8.62,4.38,1.48l-7.11,8.62Z"/>
    <path d="M830.32,604.23l2.21-2.7c.52-.64.17-2.08,0-3.29l3.01.58c-2.11-2.08-2.29-6.34-.05-7.16l4.5-1.64-6.24,15.99-1.71-1.22c-.21-.15-1.87-.36-1.71-.56Z"/>
    <path d="M852.08,548.97c-.45-2.7.54-6.33,1.22-8.74l-2.05-1.41c-.53-.36-.62-2.35.02-2.36l3.57-.04-2.57-3.75,1.01-5.77,3.91,2.2-5.1,19.86Z"/>
    <path d="M857.33,527.04c-.13.29-2.5-1.15-2.31-1.76l.77-2.36c-.59-4-.61-7.86.1-12.29l4.31,1.18-2.87,15.23Z"/>
    <path d="M348.84,83.06l.58,1.87c.11.36-.31.83-.64.62l-1.85-1.18-.6,2.77c-.12.56-1.43.97-1.92.66l-3.62-2.29,14.67-6.9-1,3.54,6.16-2.18c-3.09,3.82-7.55,4.58-11.79,3.09Z"/>
    <path d="M516.68,847.71l-15.71.19c4.17-2.88,5.76-3.38,8.65-3.44l9.15-.18-1.55,1.56c-.34.34-.38,1.19-.54,1.87Z"/>
    <polygon points="681.07 791.27 680.45 786.92 688.29 781.67 693.95 782.57 681.07 791.27"/>
    <path d="M309.04,797.87c-1.13-.27-3.68-1.06-3.82-1.84l-.69-3.96c-.56.55-1.91,2.48-2.61,2.06l-3.51-2.12c-.64-.39-2.06-1.82-1.97-2.55.11-.92,2.96-1.61,3.83-1.09l8.74,5.31.03,4.19Z"/>
    <path d="M560.93,232.07l.42,3.93c-.08.07-2.17.39-2.28-.01l-.74-2.69-2.04,2.03.16-7.92,1.58,1.86c.26.31,1.56-1.04,1.93-1.2,1.69.34,4.92,1.52,6.48,2.31-1.5,2.33-2.79,2.54-5.51,1.7Z"/>
    <path d="M840.42,588.2l-1.24-6.77c-.56-3.03,1.85-6.35,4.58-7.9l2.28-1.24-5.62,15.91Z"/>
    <path d="M798.78,666.6c-.32.79-.05-1.96.59-1.99l3.26-.18-1.94-2.07,5.04-8.48,2.51,3.62-5.37,9-4.09.11Z"/>
    <path d="M153.09,627.97c-2.36-3.8-2.68-6.1-1.85-8.46-.67.12-3.38-.92-3.18-1.8s.8-2,2.09-4.59l4.98,10.14c.54,1.09-1.54,4.48-2.04,4.72Z"/>
    <path d="M551.26,843.16l-19.14,3.28-.63-1.2,9.65-1.7c1.28-2.01,3.34-3.51,5.39-3.51h3.3c.78.02.99,1.5,1.44,3.12Z"/>
    <path d="M314.54,604.52c-1.43.48-4.98-.93-4.8-1.94,2.82-1.54,4.1-2.5,5.42-5.49l5.15,5.47-5.77,1.96Z"/>
    <path d="M117.65,452.82c-1.42-.78-2.27-1.49-2.61-1.22l-2.22,1.74.16-11.86,4.03,5.4.63,5.95Z"/>
    <path d="M222.52,724.55l7.1,6.88-4.01,1.35-8.35-8.6c2.63.4,2.66.89,5.26.37Z"/>
    <path d="M691.36,358.26l-4.45-7.53c2.62-2.44,6.58-2.59,8.83.38l-3.14,2.5c-.65.52-.39,1.62-1.24,4.65Z"/>
    <path d="M598.66,831.05c.7-1.42,2.23-2.1,3.04-2.4.6-.22.49-1.07.45-2.59l8.54-2.9,1.39,3.25-13.42,4.65Z"/>
    <path d="M850.73,344l-3.94,1.88-2.39-10.61c3.52.99,5.55,3.63,6.33,8.73Z"/>
    <path d="M326.96,95c.23-.52-.75,1.66-.88,1.96-.8-1.08-.96-1.47-1.34-1.6l-2.52-.89,12.65-6.65.68.87-3.68,2.5c.21.76.74,2.91.03,3.02l-4.94.8Z"/>
    <path d="M525.48,56.5l-9.02-.48c-1.35-.03-2.73-.21-2.66-.96.09-.97,1.88-3.54,2.89-3.25,2.58.75,6.85,3.15,8.8,4.7Z"/>
    <polygon points="116.04 504.07 115.2 496.92 119.5 494.38 120.37 503.58 116.04 504.07"/>
    <polygon points="125.69 552.3 123.22 544.62 127.09 540.16 128.85 548.46 125.69 552.3"/>
    <path d="M173.36,244.88c-.36.84-1.68,3.38-2.53,3.07l-3.51-1.25,5.19-8.39c1.14.66,2.67,2.39,2.34,3.15l-1.48,3.43Z"/>
    <path d="M283.63,782.13l-9.24-6.38,1.77-2.75c.79-1.24,6.32,2.22,7.47,9.13Z"/>
    <path d="M251.86,757.87l-6.38-5.28c.95-.25,2.88-.59,2.71-1.01l-1.2-3.01,7.67,6.61-2.79,2.69Z"/>
    <path d="M863.54,479.12l-1.07,8.99c-3.38-4.52-3.96-8.43-2.47-12.72l3.54,3.73Z"/>
    <polygon points="450.95 58.04 455.64 55.35 447.53 55.12 458.82 52.85 460.66 56.99 450.95 58.04"/>
    <path d="M554.44,61c-4.05-1.09-5.9-1.48-8.47-1.62.02-.28.19-1.86-.33-2.14l-3.15-1.66c4.96-1.99,9.44,1.63,11.96,5.42Z"/>
    <path d="M776.96,194.55l-5.26-1.34c-2.12-.54-4.65-4.86-5.37-6.74,2.53,1.46,3.39,2.12,6.29,2.27l4.34,5.82Z"/>
    <path d="M259.31,136.85c-.13,4.01-1.32,7.37-4.76,9.19-.83.44-2.4-.8-3.72-2.28l8.48-6.91Z"/>
    <polygon points="821.99 632.06 819.23 628.36 822.33 621.43 825.11 625.53 821.99 632.06"/>
    <path d="M114.75,431.25l2.79,2.78c.84.83-.14,4.53-.88,5.29-3.37-2.09-3.8-5.66-3.05-9.24l.45-2.16c.08-.38,1.59.32,1.48.7l-.79,2.63Z"/>
    <path d="M598.02,831.11c-3.3,1.64-7.17,2.44-10.63.69,2.68-2.67,6.87-5.24,10.63-.69Z"/>
    <path d="M774.95,369.93c.1.35.05,1.67-.31,1.69-.61.04-2.11.13-1.7.1-.27-1.77-.5-3.12-.87-3.92-.45-.95-3.3-.54-4.38-.21l.99-4.37,1.95,1.25c.49.31,1.52-.53,2.48-1.25l1.84,6.7Z"/>
    <path d="M818.43,635.37c-2.14-.11,1.16,4.75-.82,4.9l-4.3.34,2.72-6.05c.68-.94,2.2-2.95,2.72-2.2l2.18,3.13-2.5-.12Z"/>
    <path d="M831.52,611.61l-3.46,7.61c-2.94-3.73-2.41-8.92.84-10.18-.64,2.51-.19,3.1,2.63,2.57Z"/>
    <polygon points="746.24 738.55 740.16 744.35 737.36 741.35 743.39 735.93 741.74 739.87 746.24 738.55"/>
    <polygon points="847.31 568.6 842.55 568.66 844.87 560.98 848.18 563.85 847.31 568.6"/>
    <path d="M364.03,76.41l2.58-.94c.32-.12.23-.12.72-1.21l6.52-2.24c-.47,2.87-1.38,4.4-3.08,5.01-2.75,1-4.75.82-6.75-.62Z"/>
    <path d="M690.68,112.28l-2.89,2.62c-1.08.98-5.44-3.18-5.26-3.35l2.44-2.3,5.71,3.04Z"/>
    <path d="M708.14,772.02l-2.21-2.19c-.45-.45.35-1.25,1.16-2.21.37-.4,1.49-1.57,1.9-1.37l1.96.92,3.84-.9-6.65,5.75Z"/>
    <path d="M117.54,431.47l-2.94-5.63c-.4-.76-.42-3.47.36-3.67l3.76-.99-1.17,10.29Z"/>
    <path d="M711.75,411.35l-.2-4.38-.44-1.17c-.17-.45.18-1.12.44-1.53s1.97.33,2.05.81l1.41,8.87c.09.56-2.3,1.12-2.52.59-.29-.7-.7-2.27-.74-3.19Z"/>
    <path d="M317.73,216.12c6.25,13.36,1.54,26.58-9.29,34.81-12.7,9.64-28.34,6.48-38.71-5.25-7.66-8.67-12.12-20.24-7.03-31.48,4.45-9.82,13.26-17.2,23.95-18.57,6.56-.84,12.57,1.57,18.38,5.4l-2.39,2.96,3.89-1.88c4.25,3.78,8.61,8.45,11.21,14.01ZM285.69,241.21c6.24,4.42,13.55,2.83,17.98-1.58,4.93-4.91,4.93-12.08,1.28-18-4.06-6.59-9.56-11.89-17.3-13.45l.49-4.13-1.93,4.46c-5.44.86-9.66,4.07-11.34,8.56-3.41,9.12,2.06,17.93,10.82,24.14Z"/>
    <g>
      <path d="M503.73,603.85c-.38-2.71-3.59-6.84-5.5-9.55-2.31-3.29-2.06-7.06-3.03-11.24l-5.99-10.57c-3.06-5.41,1.65-12.67,4.49-17.19l-1.99-8.86c-.41-1.82-1.3-5.9-2.28-7.45l-8.24-10.82c1.33-4.66,2.74-8.56,1.88-12.72-.58-2.82-4.04-3.41-6.79-2.59-5.08,1.52-2.55-8.27-10.86-5.97l-11.13,3.09c-5.56-1.12-10.75-1.11-16.53.03l-9.48-9.35c-4.3-13.39-13.63-13.38-5.77-29.27,1.88-3.79-.12-10.07.38-13.42l7.96-11.11,3.92,4.23,5.19-1.6c.18-1.38,2.11-4.06,2.84-3.2l1.93,2.27c.46.55,1.68-.79,1.95-1.45s-1.12-2.02-1.77-2.33l-2.93-1.37c-.56-.26-1.38,2.36-2.01,2.39-1.64.09-4.79-.51-6.9-1.18l9.9-7.05c.31-9.6,6.44-7.91,11.91-15.23,8.26,5.49,11.63-.99,20.37-1.07l13.65-.12c2.87-.02,3.97,6.89.46,9.25,2.97,5.43,9.96,1.84,12.66,7.49l7.74,3.09,1.52-5.56c1.62-5.92,12.54,2.97,20.9,2,7.61-.88,10.81.1,11.22-1.7l.82-3.6c.89-3.89,1.23-8.26.24-11.66-4.09,2.96-6.38,1.95-9.24,1.35-1.82.29-5.1,2.35-7.45-.19-2.72-2.95-3.33-7.03-3.56-11.7l-6.86,1.6,3.12,6.42-4.77,6.43-6.03-12.63-2.19-6.72c-4.19-1.67-7.26-4.35-9.64-8.17l-1.81,2.21c-.6.74,3.36,6.04,9.11,10.39l2.03,1.53c.5.38-1.23,1.58-1.77,1.99-.4,2.3-1.43,5.01-2.89,6.86l-2.14,2.69c-.6.75-5.53-.45-6.21-3.16-.21-.84,2.39-1.73,3.21-1.53l3.16.79c.7.17,1.69-3.7,1.14-4.16l-8.54-7.11-4.51-7.07c-3.67,3.22-7.06,4.36-11.01,1.71-1.29,8.81-9.25,6.28-8.75,13.84-.76,1.12-3.91,3.8-5.52,4.05l-7.8,1.22-6.45-3.37c-.6-3.71,1.16-8.1,2.55-12.2.69-2.03,1.33-5.51,2.63-7.09l12.68,2.23c5.72-9.37-2.17-11.41-1.76-14.08.31-2.01,6.31.33,11.48-5.29l-12.35,1.03,2.73-3.34c-.53-2.58,1.36-5.32,3.24-7.07-1.03-3.26-1.77-7.98-.22-11.13.55-1.12,4.15-1.63,4.75-.66,2.19,3.54-2.83,8.18,3.25,15.28l-1.18,4.57c6.22,1.16,4.94-7.32,13.84-6.51-.97-4.63-.4-8.5,3.72-10.42l1.17,4.94,3.18-.19-2.07-8.2-6.24,3.51c-2.14-2.24-2.45-5.12-2.03-8.47.7-5.69,8.89-4.01,13.68-13.85,4.32-8.86,15.97-14.47,20.11-8.17l9.39,3.18c1.11.38,2.74,2.9,2.23,3.84s-2.78,1.77-3.8,1.48l-4.45-1.28,3.43,7.04c4.65-1.44,8.61-7.58,8.65-7.42l-1.04-3.76c-.16-.59,1.74-.94,1.99-.42l1.33,2.82c2.85-6.62,9.66-4.68,9.98-6.83l.42-2.79,7.46,2.14c-3.03-2.81-6.85-5.94-4.95-9.45l3.36,1.53c.75.34,2.31-1.07,3.64-1.94-1.49-3.62-1.01-7.34.9-12.43l-11.56-2.7-1.9-2.54c-2.24-3,3.7-.39,10.62.83l10.21,1.81c-5.05-3.66-9.27-5.73-14.71-8.32,2.32-.27,3.77-.8,6.01-3.54l11.7,6.2,1.3,5.8c-.49.75-2.14,2.6-2,3.5s.55,3.58.47,3.09l3.74-1.2c.63-.2.02-2.37-.13-2.71,1.02.07,2.6.38,2.88-.23l1.68-3.69,13.5,9.34,18.39,16.62,10.97,12.99,4.74,6.34,16.13,27.89-4.25,3.89,5.46-1,3.6,8.81-2.48.53c-.5.11-.57,2.1-.09,1.92l2.96-1.16,5.77,16.8-2.43,1c-.37.15-.45,2.14-.06,2.06l2.8-.56,1.54,8.39-1.79.2c-.47.05-.4,1.52-.32,1.98s1.41.03,2.71-.3l2.05,15.78c.09.66-2.94,2.5-2.61,3.08l1.39,2.46-2.11,1.41c-.51.34-.27,2.02-.18,3.65l3.99-3,.79,17.05-4.85,1.56,3.04,1.04c.38.13,1.48.79,1.19,1.08l-2.04,2.01,1.45,1.49c.36.36.05,2.15-.42,2.02l-3.1-.81c.02-.2-.13,1.6-.18,2.3s1.63-.04,3.82-.76l-.97,10.64-1.44-1.33c-.39-.36-.81-.26-1.29-.13s-1.82,1.6-1.31,1.68l3.9.61c-1.55,13.61-5.27,26.86-10.55,40.3l-4.91.14c-.48.01-1.1,1.18-1.07,1.66s.62,1.45,1.06,1.29l3.84-1.4c-1.93,5.56-4.9,11.78-7.9,17.32-.83,1.53-4.71,1.83-6.93,2.82h5.6s-15.8,23.52-15.8,23.52c-1.11-.16-2.76-.45-2.78.12l-.12,2.98c-.05,1.14-2.49,2.61-3.4,2-1.15-.76-3.12-2.73-3.14-3.53l10.8-14.22,2.31,1.68c.61.44,2.26-.1,3.38-.8l-5.1-1.99,13.62-23.11,9.71-24.31,1,2.55c.11.29.2.52.44.32l2.1-1.84-3.34-3.66,3.42-11.43,1.48,3.38c.29.67,3.25.33,3.23-.4l-.1-3.42c-.03-.99-1.2-.75-3.74-.7-.16-3.84.31-8.49,1.07-12.19l2.06.22c.3.03,1.28-.98.98-1.06l-2.59-.63,1.3-11.29c-1.51-2.19-2.54-4.31-2.47-6.59.1-3.55-1.13-6.07-2.17-8.98l-4.14-11.54-3.59,4.93c-.62,6.43-2.3,12.31-5.11,18.08.49,7.3.78,14.17-3.43,21.71l-3.2-7.73,4.59-.76c-8.51-.75-9.81-16.5-12.34-27.68l-1.6,5.17-3.02-1.68c-.59-.33.8-2.23,1.61-3.59-3.53.41-5.8-1.68-8.08-5.37-3.7,2.27-11.3,4.01-15.41,2.72-.64-.2-2.05-2.14-2.52-2.6-.56-.55-2.36.81-3.35,1.02-4.73.99-9.63-3.17-11.63-7.31-.71-.13-3.22.64-3.04,1.39.23.94,1.11,2.89,1.64,3.81l4.18,7.27c-.34.3.62-.55.85-.76.35-.3,1.68-.56,1.59-.36.07,1.54.53,4.13,1.47,4.24s3.4-.59,3.94-1.44l3.57-5.61,2.77,5.31c2.03.59,4.88,1.71,5.7,3,.95,1.51-.85,5.18-1.26,6.92-1.41,5.89-4.03,10.16-9.06,13.34-1.64,1.77-4.25,4.87-6.63,6.15l-13.44,7.22-4-12.94-5.44-6.35c-2.59-3.03-3.97-5.41-4.64-8.92l-10.18-13.69,1.62-1.62c.2-.2.06-1.25-.15-1.11-.45.3-1.49,1.04-1.7,1.44l-2.3,4.29,6.47,11.52c1.5,2.66,3.5,4.46,3.91,7.96.27,2.36,2.15,4.42,3.5,6.44,2.04,3.04,3.26,6.4,6.87,8.13s4.93,4.75,6.52,8.97c8.19,1.16,15.68-5.82,16.63-4.57,2.27,2.99-2.13,15.74-5.52,22.2-1.57,2.99-4.39,4.93-6.43,6.8l-4.47,4.13-2.88-4.07,1.64-4.61-3.45,3.13c-1.28,1.16,3.81,4.62,3.63,7.46-.07,1.07-2.06,2.85-2.63,3.78l-6.81,11.24,1.28,8.26c1.04,6.69,2.99,15.47-1.83,19.15l-13.18,10.06c2.39,5.02,2.3,9.31-1.28,12.55-3.89.72-6.01,2.99-5.35,7.68-5.27,4.67-10.47,12.72-17.98,13.8l-12.95,1.85c-1.07.15-4.05-.09-4.18-1.05l-.67-4.81ZM564.02,326.21l-3.7.03,4.56,6.83-2.19,2.8c.64.53,3.27.7,3.89-.33,2.14-3.58-3.39-4.7-2.56-9.33ZM510.02,372.94l1.2-6.25c.18-.92,1.66-3.32,2.4-2.86l3.04,1.88c-.38-1.55-.94-2.56-2.73-5.41l10.3-3.24c-4.67-3.5-9.33,4.9-12.05-1.99-2.36-5.98,5.02-10.12,4.09-10.7l-2.49-1.52c-.59-.36-1.45,1.63-1.89,2.45-2.99,5.68-6.88,5.08-4.69,10.24,1.93,4.55-4.17,16.85-12.46,13.79.06.3.6,2.99.57,2.81l6.94,1.15,3.83-1.76c.73-.34,2.13.66,3.94,1.4ZM626.54,383.16l5.06,5.01c1.51-3.92-2.16-8.84-5.64-9.22-.19.57-.32,1.82.07,1.89l2.53.46-2.02,1.86ZM513.3,390.09l1.39-9.04c-1.48-.32-4.05,1.46-3.79,2.47l.94,3.64c.16.64.55,1.51,1.46,2.93ZM579.8,412.7l-4.61-7.8c1.01-.84,2.5-2.02,2.02-2.2s-2.18-.7-2.57-1.03l-5.84-4.93c-.71-.6-1.38-3.02-.66-3.51l3.18-2.18c-.15-.27-2-2.32-2.91-3.23-2.51.88-6.68,5.31-5.55,7.41,5.2,9.6,9.36,10.08,7.91,15-.26.89-.47,3.29.23,3.66l3.25,1.74c.9.48,3.01.94,3.96.69s2.09-2.77,1.57-3.63ZM527.36,410.47l6.93-3.89c2.57-1.44,5.75-2.49,8.49-.99,3.94,2.15,8.02,2.45,11.19-2.13l-10.92-7.09,2.37-6.64-5.81,4.16c.85,1.24,2.13,2.81,1.49,3.4-.82.75-2.2,1.58-3.05,1.65-.69.06-2.17-1.35-2.42-1.98l-1.31-3.34c-.29-.73-3.01-.72-3.53-.26l-4.52,11.39,1.83,2.93c.33.54-.9,1.43-2.12,2.74l1.37.05ZM652.75,442.26c.43-3.6.68-4.74,1.51-5.9l1.38-1.95c2.11-2.98-4.49,2.55-4.74,2.52l-4.51-.55,1.61,4.13c-.55.49-1.59,1.5-1.14,1.65l2.14.69c1.31-.2,4.03-.63,3.76-.59ZM478.96,456.73l-.18-5,3.67,2.04,3.77-6.84-4.55,3.47c-.76.58-3.15.41-3.63.25l-2.61,4.61,3.53,1.47ZM479.98,502.94c1.06,3.12,2.29,3.41,3.13.97l-7.11-4.93c.42,1.41,1.7,2.81,1.12,3.08l-2.79,1.26,4.44,3,1.21-3.38ZM548.2,524.47c.14-.83-.79-2.99-1.48-3.08-3.13-.42-4.99,2.59-6,6.72,3.59,1.65,6.93-.29,7.48-3.64ZM512.09,538.3c.83.83,3.65-2.63,2.92-2.64l-5.97-4.26-3.2,4.89-1.04,1.77c-.21.36,1.58.62,1.69.23.27-1.05,1.68-3.91,2.32-3.27l3.29,3.3ZM539.11,544.1l-3.01-12.58c-2.19,4.21-1.44,10.6,3.01,12.58ZM548.89,558.2l-1.86-9.78c-1.48,3.34-.97,6.51-.68,9.78l1.51,1.99c.24.31,1.12-1.54,1.03-1.99Z"/>
      <path d="M409.94,313.25c-.19.36.78,2.32,1.15,2.14l2.81-1.35c.83-.4,2.74-.62,3.36.07s0,2.95-.57,3.66l-1.36,1.67c-.18.22,1.02,0,1.29.06l2.32.45c-2.3,2.7-6.37,4.84-9.98,5.49l.72,2.89c.18.73-2.23,2.18-2.58,1.51l-1.74-3.37c-17.69,2.88-13.22,15.11-16.01,18.31-1.84,2.1-5.56,4.48-4.17,7.75l3.09-4.73c4.45-2.97,8.4-6.1,12.34-9.82l7.51-7.09c1.48,1.67,2.99,3.55,3.2,4.81.24,1.44-1.48,4.23-2.5,5.29l-1.53,1.59c-.26.27.61,1.4.81,1.24l2.15-1.75c.54-.44,2.28,1.23,1.95,1.85l-4.7,8.93c.2,4.15-.19,8.65-2.51,11.47l-8.8,1.26c-2.85-2.23-5.95-1.6-8.88.1l2.57.66c.42.11,1.09,1.3.86,1.68l-2.98,5.03,3.01,1.79c.79.47-1.46,2.91-2.32,3.19l-6.94.83.65-2.71c.07-.28.06-.84-.21-.74l-2.31.88c-2.52.96-4.06,2.22-5.6,4.36-1.53,1.5-6.91,2.72-8.11,4.72l-5.99,9.98c-3.11.79-6.7,2.28-7.63,5.06l-4.45,13.25c-2.31-.52-2.73-2.56-2.32-4.67l1.98-10.33c.08-.42-2.06-1.25-2.37-.96l-2.54,2.34.4-5.36-4.8,1.6c-1.61-1.02-2.93-1.25-7.06-.51,20.2-59.66,73.98-106.66,138.1-115.03l8.78-.6c3.34-.23,9.56-2.21,12.26-.56l1.47,2.05c.19.26.54.15.66-.18l.75-2.11,7.42-.35c3.39-.16,5.57,1.63,8.33,3.64,1.17.85,4.14,1.31,3.78,3.92-7.74-.07-12.44.42-13.47-6.08l-5.14,4.82-19.5.77c-12.43,1.73-23.73,4.23-35.5,8.63l4.79,2.3c6.9-1.34,14.05.08,20.58,3.27l-.64,4.06,9.85.09,10.21-.25c.67-.02,3.07,2.06,2.52,2.45l-2.92,2.09,6.52.77-5.39,3.9c-8.54,6.18-10.05,14.41-15.37,12.13-.56-.24.33,2.62.18,3.32-1,4.53-8.09,7.47-13.18,5.78-3.77,2.47-8.25,5.8-13.76,4.66l-11.56,10.94-4.51-3.3,4.38-11.69c1.35-3.6,5.74-5.44,8.73-7.14,2.87-8.07,10.49-11.71,8.57-15.37-.36-.69-3.93-.59-3.73-1.33l1.01-3.7-7.32,3.22c-2.55-1.64-4.81-5.12-5.02-7.88l-5.92,3.11,1.23-6.93-6.68,3.26c.85,3.98-1.87,7.19-5.96,7.31l-1.83-4.04-3.92,7.53Z"/>
      <path d="M388.04,586.6l12.91,11.62-6.99,2.47c-17.47-13.08-32.21-29.12-43.69-47.05.69.03,1.99.2,1.95-.1l-.21-1.82c-.05-.45-1.3-.03-2.67.43l-5.76-9.62,4.47-.42,3.42,4.29c.03-4.67-.76-7.61-4.46-10.94l1.1,4.21-6.05.71-7.14-15.43,2.53-4.64-3.56,2.05-7.84-22.23c1.53-2.3.99-4.23-1.18-5.54l-3.41-22.79,3.87,3.4-.46-4.28c-.16-1.52,5.45-1.69,5.09-13.16-.09-2.69.03-4.92-3.22-5.7l.99,14.76-6.37,4.39-.5-12.75,3.31.41-.78-6.12-2.28,3.85.27-8.77.29-8.39,1.13-12.16,3.57,3.86-2.81-5.53,1.54-9.55c2.15.39,3.54.55,3.6-.22.08-1.18.2-3.01.17-2.51l-2.52,2.06,1.1-8.31c.15-1.17,1.3-4.66,2.48-4.84l5.86-.89-3.31,13.77c-.67,2.8-.89,5.83-2.01,8.7-1.38,3.53-1.26,5.08-.41,8.61.73,3.04-1.18,8.14-1.72,11.42.31,2.86,1.5,6.8,2.51,9.35,1.83-3.29,7.2-4.22,8.24-2.27l2.75,5.18c.65,1.22,3.18,1.3,5.4,1.25.15,1.46.26,4.18.13,5.4l-3.85-.19-.13,4.15c-1.68.01-3.3.05-2.09.19,1.13,1.42,2.93,3.2,2.32,3.49-.76.37-2.83,1.37-2.77,1.33l-1.75-2.98c-.28-.47-1.59,1.63-2.14,2.46l3.89,7.14,2.17-2.31c.54-.58-1.12-2.15-1.39-2.35l3.85-2.8,3.81,6.76c1.61-.84,4.39-2.45,5.18-3.09-1.95-.57-3.97,1.77-3.97,1.73l-.04-4.08c5.34-1.11,8.34,4.12,9.34,8.81.78,3.67,2.9,7.23.34,10.37l-1.47,1.81c-.32.39.91,2.05,1.29,1.71l2.08-1.88,5.57,4.04c2.37,1.72,3.4,4.48,6.93,5,2.94.43,5.9,4.4,7.21,6.43.43.67,2.59,1.4,3.22,1.84.79.55.58,2.73.51,3.93,4.23,8.34-6.07,10.14-2.94,20.96,1.26,4.35.88,10.85-.37,15.13-2.19.2-6.85,2.64-6.12,4.41l4.17,10.15-4.05-.28c3.95,3.35,5.65,6.41,6.13,10.67l-3.55,1.78,9.3,9.51ZM349.95,487.25c.66.28,3-.24,3.67-.7l-5.63-3.55,6.54-.34c1.26-.06,3.58-2.91,2.72-3.4-1.76-.67-3.42-1.43-3.94-.92l-2.45,2.39-5.16,1.13c.47,2.41.62,3.73-.37,3.99-1.36.35-2.17.42-3.32-.58-1.01,2.1-3.01,3.58,1.4,6.61-.22.8,3.56.04,5.17-.73l-2.72-2.63c-.49-.47.52-2.78,1.14-2.52l2.94,1.25ZM376.52,536.39l4.12-1.81c1.11-.49-3.31-3.76-2.69-4.47l2.6-3.01-8.07,2.01,6.18,3.45-2.13,3.83Z"/>
      <path d="M413.01,605.81l1.03,5.93.95-4.87,22.86,9.76,10.82,4.05c.27.55,1.04,2.38,1.34,2.05l1.74-1.89c28.64,6.91,58.29,6.07,86.56-1.74l9.34-3.97c13.71-5.83,26.44-12.69,38.22-21.79l8.54.59c-39.73,34.89-91.69,45.89-145.87,33.04l.79-2.5c.11-.35-1.03-.82-1.21-.49l-1.15,2.17c-14.98-3.67-29.3-10.06-41.53-18.41l3.51-.66c.55-.1.56-1.64.15-2.02-1.51-1.37-5.08.62-5.05-.88l.07-4.07,8.89,5.7Z"/>
      <path d="M566.05,584.41c-3.3-1.88-1.92-8.03.6-10.22,4.25-3.69-3.61-10.87,7.9-15.65,2.52-1.05,5.1-6.22,6.9-9.3,3.9,4.16,2.04,9.19.22,13.59l-6.53,15.83c-1.29,3.13-5.19,7.97-9.1,5.75Z"/>
      <path d="M413.3,337.81l.55-6.33-1.01-2.75c-.93-2.52,6.69.11,9.82-5.65l3.32-6.11,2.39-1.74c.64-.46.59-2,.71-3.3,4.94,5.13,1.47,10.95-1.92,15.5.16,2.26-.41,5.56-3.5,6.11l-2.43-3.03-1.9,5.98-6.02,1.32Z"/>
      <path d="M595.63,592.99c-2.42-.68-4.7-1.09-7.37-1.34l19.58-18.17,7.1.35c-5.8,8.07-12.27,13.72-19.31,19.16Z"/>
      <path d="M469.33,344.25c-1.47,3.05-6.98,4.94-9.87,4.49-1.65-.26-3.26-2.46-2.97-3.75.39-1.73,1.91-4.49,2.95-4.47,4.91,2.49,12.03-.72,9.88,3.73Z"/>
      <path d="M458.4,377.59c.18-5.91,3.79-9.7,8.84-10.49l1.07,2.52c-.13-.31-3.3,10.12-9.91,7.97Z"/>
      <path d="M543.26,325.58l1.96,1.49c.44.34-.11,1.45-.6,1.71s-2.71.15-3.16-.18c-2.08-1.49-3.17-6.25-2.31-9.11s3.14-6.53,7.41-6.02c-3.12,4.22-5.51,7.89-3.3,12.1Z"/>
      <path d="M399.26,378.05l-4.78-6.68c1.67-1.77,4.13-3.54,7.23-5.18,1.11,5.13.85,7.7-2.45,11.86Z"/>
      <path d="M552.04,296.48c-1.13,1.23-5.38-1.77-5.26-3.45.07-.99.33-2.46-.1-2.9l-2.17-2.24,9.25,3.6c.14.74-.62,3.79-1.72,4.99Z"/>
      <path d="M524.3,288.33c-5.53-.56-6.86-.77-11.76-2.45l6.72-.32-6.09-4.24,4.79-.24c.97-.05,1.75,2.22,2.31,3.08l4.04,4.18Z"/>
      <path d="M347.25,428.37c-2.51-5.19-3.25-7.55-6.88-10.73.45-.91,3.18-1.8,4-1.05,2.7,2.49,4.81,9.24,2.89,11.78Z"/>
      <path d="M507.6,319.14c-.67.18-1.7-1.97-1.97-2.5l-2.48-2.3c-.63-.58,1.62-3.23,2.42-2.92,1.37.52,3.58,2.05,3.93,3.19s-.75,4.21-1.9,4.53Z"/>
      <path d="M489.02,415.08c-.39.55-2.89,1.82-3.04,1.17s-.57-2.86-.36-3.48l2.53-7.74c.98,2.9,1.02,7.35.87,10.05Z"/>
      <path d="M353.82,408.23c1.49,3.08-.79,7.72-3.6,9.83-.18-3.06.86-6.73,1.46-8.93.19-.51,1.9-1.4,2.14-.9Z"/>
      <polygon points="356.27 436.09 346.95 432.9 350.5 428.36 356.27 436.09"/>
    </g>
  </g>
</svg>